<?xml version="1.0" encoding="UTF-8"?>
<svg width="59px" height="65px" viewBox="0 0 59 65" version="1.1" xmlns="http://www.w3.org/2000/svg" xmlns:xlink="http://www.w3.org/1999/xlink">
    <!-- Generator: Sketch 53.2 (72643) - https://sketchapp.com -->
    <title>calendar (5)</title>
    <desc>Created with Sketch.</desc>
    <g id="Page-1" stroke="none" stroke-width="1" fill="none" fill-rule="evenodd">
        <g id="HOMEPAGE--Copy-4" transform="translate(-1185.000000, -120.000000)" fill="#000000">
            <g id="calendar-(5)" transform="translate(1185.000000, 120.000000)">
                <path d="M31,47 C31.55,47 32,46.4807692 32,45.8461538 L32,30.1538462 C32,29.5192308 31.55,29 31,29 C30.45,29 30,29.5192308 30,30.1538462 L30,45.8461538 C30,46.4807692 30.45,47 31,47 Z" id="Path" transform="translate(31.000000, 38.000000) scale(-1, 1) translate(-31.000000, -38.000000) "></path>
                <path d="M31,55 C31.55,55 32,54.4375 32,53.75 L32,51.25 C32,50.5625 31.55,50 31,50 C30.45,50 30,50.5625 30,51.25 L30,53.75 C30,54.4375 30.45,55 31,55 Z" id="Path"></path>
                <path d="M56.6374459,8.75121951 C55.1688312,7.29268293 53.1893939,6.40487805 50.9545455,6.40487805 L48.5281385,6.40487805 L48.5281385,5.26341463 C48.5281385,3.80487805 47.9534632,2.47317073 46.995671,1.52195122 C46.0378788,0.570731707 44.6969697,0 43.228355,0 C41.7597403,0 40.4188312,0.570731707 39.461039,1.52195122 C38.5032468,2.47317073 37.9285714,3.80487805 37.9285714,5.26341463 L37.9285714,6.40487805 L21.0714286,6.40487805 L21.0714286,5.26341463 C21.0714286,3.80487805 20.4967532,2.47317073 19.538961,1.52195122 C18.5811688,0.570731707 17.2402597,0 15.771645,0 C14.3030303,0 12.9621212,0.570731707 12.004329,1.52195122 C11.0465368,2.47317073 10.4718615,3.80487805 10.4718615,5.26341463 L10.4718615,6.40487805 L8.04545455,6.40487805 C5.81060606,6.40487805 3.83116883,7.29268293 2.36255411,8.68780488 C0.893939394,10.1463415 0,12.1121951 0,14.3317073 L0,22.5756098 L0,57.0097561 C0,59.2292683 0.893939394,61.195122 2.36255411,62.6536585 C3.83116883,64.1121951 5.81060606,65 8.04545455,65 L50.9545455,65 C53.1893939,65 55.1688312,64.1121951 56.6374459,62.6536585 C58.1060606,61.195122 59,59.2292683 59,57.0097561 L59,22.5756098 L59,14.395122 C59,12.1756098 58.1060606,10.2097561 56.6374459,8.75121951 Z M40.482684,5.26341463 C40.482684,4.50243902 40.8019481,3.86829268 41.3127706,3.36097561 C41.8235931,2.85365854 42.4621212,2.53658537 43.228355,2.53658537 C43.9945887,2.53658537 44.6331169,2.85365854 45.1439394,3.36097561 C45.6547619,3.86829268 45.974026,4.50243902 45.974026,5.26341463 L45.974026,10.0829268 C45.974026,10.8439024 45.6547619,11.4780488 45.1439394,11.9853659 C44.6331169,12.4926829 43.9945887,12.8097561 43.228355,12.8097561 C42.4621212,12.8097561 41.8235931,12.4926829 41.3127706,11.9853659 C40.8019481,11.4780488 40.482684,10.8439024 40.482684,10.0829268 L40.482684,5.26341463 Z M13.025974,5.26341463 C13.025974,4.50243902 13.3452381,3.86829268 13.8560606,3.36097561 C14.3668831,2.85365854 15.0054113,2.53658537 15.771645,2.53658537 C16.5378788,2.53658537 17.2402597,2.85365854 17.6872294,3.36097561 C18.1980519,3.86829268 18.517316,4.50243902 18.517316,5.26341463 L18.517316,10.0829268 C18.517316,10.8439024 18.1980519,11.4780488 17.6872294,11.9853659 C17.1764069,12.4926829 16.5378788,12.8097561 15.771645,12.8097561 C15.0054113,12.8097561 14.3668831,12.4926829 13.8560606,11.9853659 C13.3452381,11.4780488 13.025974,10.8439024 13.025974,10.0829268 L13.025974,5.26341463 Z M56.3820346,56.9463415 C56.3820346,58.404878 55.7435065,59.8 54.7857143,60.7512195 C53.8279221,61.702439 52.4231602,62.3365854 50.9545455,62.3365854 L8.04545455,62.3365854 C6.57683983,62.3365854 5.17207792,61.702439 4.21428571,60.7512195 C3.25649351,59.8 2.61796537,58.404878 2.61796537,56.9463415 L2.61796537,23.7804878 L56.3820346,23.7804878 L56.3820346,56.9463415 Z M56.4458874,21.2439024 L2.61796537,21.2439024 L2.61796537,14.3317073 C2.61796537,12.8731707 3.25649351,11.4780488 4.21428571,10.5268293 C5.17207792,9.57560976 6.57683983,8.94146341 8.04545455,8.94146341 L10.4718615,8.94146341 L10.4718615,10.0829268 C10.4718615,11.5414634 11.0465368,12.8731707 12.004329,13.8243902 C12.9621212,14.7756098 14.3030303,15.3463415 15.771645,15.3463415 C17.2402597,15.3463415 18.5811688,14.7756098 19.538961,13.8243902 C20.4967532,12.8731707 21.0714286,11.5414634 21.0714286,10.0829268 L21.0714286,8.94146341 L37.9924242,8.94146341 L37.9924242,10.0829268 C37.9924242,11.5414634 38.5670996,12.8731707 39.5248918,13.8243902 C40.482684,14.7756098 41.8235931,15.3463415 43.2922078,15.3463415 C44.7608225,15.3463415 46.1017316,14.7756098 47.0595238,13.8243902 C48.017316,12.8731707 48.5919913,11.5414634 48.5919913,10.0829268 L48.5919913,8.94146341 L51.0183983,8.94146341 C52.487013,8.94146341 53.8917749,9.57560976 54.8495671,10.5268293 C55.8073593,11.4780488 56.4458874,12.8731707 56.4458874,14.3317073 L56.4458874,21.2439024 L56.4458874,21.2439024 Z" id="Shape" fill-rule="nonzero"></path>
            </g>
        </g>
    </g>
</svg>