<?xml version="1.0" encoding="UTF-8"?>
<svg width="58px" height="54px" viewBox="0 0 58 54" version="1.1" xmlns="http://www.w3.org/2000/svg" xmlns:xlink="http://www.w3.org/1999/xlink">
    <!-- Generator: Sketch 53.2 (72643) - https://sketchapp.com -->
    <title>shopping-cart (1)</title>
    <desc>Created with Sketch.</desc>
    <g id="Page-1" stroke="none" stroke-width="1" fill="none" fill-rule="evenodd">
        <g id="Amazon-Style-guide-Copy" transform="translate(-1576.000000, -1527.000000)" fill="#FCAD4F" fill-rule="nonzero">
            <g id="Group-40" transform="translate(1564.000000, 1386.000000)">
                <g id="Group-34" transform="translate(12.000000, 141.000000)">
                    <g id="shopping-cart-(1)">
                        <path d="M25.6034483,43.7586207 C22.7798989,43.7586207 20.4827586,46.055761 20.4827586,48.8793103 C20.4827586,51.7028597 22.7798989,54 25.6034483,54 C28.4269976,54 30.7241379,51.7028597 30.7241379,48.8793103 C30.7240242,46.055761 28.4268839,43.7586207 25.6034483,43.7586207 Z M25.6034483,51.1406289 C24.3563968,51.1406289 23.3419023,50.1260207 23.3419023,48.8790829 C23.3419023,47.6320314 24.3565105,46.6175369 25.6034483,46.6175369 C26.8503861,46.6175369 27.8649943,47.6321451 27.8649943,48.8790829 C27.8649943,50.1262481 26.8503861,51.1406289 25.6034483,51.1406289 Z" id="Shape"></path>
                        <path d="M42.362069,43.7586207 C39.5385196,43.7586207 37.2413793,46.055761 37.2413793,48.8793103 C37.2413793,51.7028597 39.5385196,54 42.362069,54 C45.1856183,54 47.4827586,51.7028597 47.4827586,48.8793103 C47.4826449,46.055761 45.1855046,43.7586207 42.362069,43.7586207 Z M42.362069,51.1406289 C41.1150174,51.1406289 40.100523,50.1260207 40.100523,48.8790829 C40.100523,47.6320314 41.1151312,46.6175369 42.362069,46.6175369 C43.6091205,46.6175369 44.623615,47.6321451 44.623615,48.8790829 C44.623615,50.1262481 43.6090068,51.1406289 42.362069,51.1406289 Z" id="Shape"></path>
                        <path d="M57.086219,10.4492072 C56.5457313,9.77081019 55.7448083,9.38180416 54.8889797,9.38180416 C39.6564392,9.38180416 28.2320338,9.38180416 20.6157635,9.38180416 C18.4215792,9.38180416 15.1303027,9.38180416 10.741934,9.38180416 L9.85036607,4.95573641 C9.66422814,4.03245238 9.04842841,3.2572074 8.20274665,2.88169091 L1.98195176,0.120370669 C1.26378181,-0.198651172 0.42914882,0.138356721 0.117641194,0.872556607 C-0.19420466,1.60698708 0.135341772,2.46063281 0.853173496,2.77919347 L7.07408113,5.540629 L13.9317586,39.5828075 C14.2018897,40.9234602 15.3694514,41.8965517 16.7080435,41.8965517 L50.662262,41.8965517 C51.4450335,41.8965517 52.0795484,41.2476703 52.0795484,40.4471757 C52.0795484,39.646681 51.4450335,38.9977996 50.662262,38.9977996 L16.7081563,38.9977996 L15.8739743,34.8568569 L50.9247267,34.8568569 C52.263206,34.8568569 53.4308805,33.8837653 53.7008988,32.5431127 L57.6652646,12.865103 C57.8378735,12.008229 57.6268194,11.1274889 57.086219,10.4492072 Z M50.9247267,31.9583354 L15.2900807,31.9583354 L11.3259404,12.280441 L54.8888669,12.280441 L50.9247267,31.9583354 Z" id="Shape"></path>
                    </g>
                </g>
            </g>
        </g>
    </g>
</svg>