<svg viewBox="0 -10 512.00153 512" xmlns="http://www.w3.org/2000/svg"><path d="m305.503906 220.660156c3.898438-3.898437 3.898438-10.230468 0-14.140625-3.910156-3.898437-10.242187-3.898437-14.140625 0-3.910156 3.910157-3.910156 10.242188 0 14.140625 3.898438 3.910156 10.230469 3.910156 14.140625 0zm0 0"/><path d="m8.796875 375.195312 114.738281 113.9375c1.871094 1.863282 4.40625 2.90625 7.046875 2.90625h239.425781c5.523438 0 10-4.480468 10-10 0-5.523437-4.476562-10.003906-10-10.003906h-160.304687l39.226563-39.21875c3.90625 3.90625 10.234374 3.902344 14.140624 0 7.625-7.625 119.953126-119.953125 127.285157-127.285156.003906 0 .003906-.003906.003906-.003906.003906-.003906.003906-.003906.007813-.003906l42.425781-42.429688c3.90625-3.90625 3.90625-10.238281 0-14.140625l70.4375-70.445313c11.695312-11.695312 11.695312-30.730468 0-42.425781l-127.289063-127.289062c-11.722656-11.722657-30.699218-11.726563-42.425781 0l-70.433594 70.445312-.003906-.003906c-1.875-1.878906-4.417969-2.933594-7.074219-2.933594 0 0 0 0-.003906 0-2.652344 0-5.195312 1.054688-7.070312 2.929688-16.40625 16.402343-161.097657 161.097656-169.722657 169.71875-3.894531 3.894531-3.902343 10.195312-.035156 14.105469l-70.398437 69.683593c-11.703126 11.699219-11.703126 30.734375.023437 42.457031zm247.207031 36.402344s0-.003906-.003906-.003906l-155.570312-155.570312c0-.003907-.003907-.003907-.003907-.003907l28.285157-28.285156 155.578124 155.578125zm91.652344-388.660156c3.898438-3.898438 10.242188-3.898438 14.140625 0l127.285156 127.289062c3.898438 3.898438 3.898438 10.242188 0 14.140626l-70.4375 70.445312-.589843-.589844-140.832032-140.839844zm-91.660156 77.511719v.003906l155.574218 155.570313s0 .003906.003907.003906l-28.285157 28.285156-49.503906-49.503906c-3.90625-3.902344-10.238281-3.902344-14.144531 0-3.902344 3.90625-3.902344 10.238281 0 14.144531l49.503906 49.503906-70.710937 70.710938-155.578125-155.578125 70.710937-70.710938 49.503906 49.5c3.902344 3.90625 10.238282 3.90625 14.140626 0 3.90625-3.902344 3.90625-10.238281 0-14.140625l-49.5-49.503906zm-233.117188 246.46875 70.433594-69.71875 141.472656 141.472656-53.371094 53.367187h-46.710937l-111.789063-111.011718c-3.902343-3.898438-3.902343-10.246094-.035156-14.109375zm0 0"/><path d="m410.011719 472.039062c-5.523438 0-10.003907 4.476563-10.003907 10 0 5.523438 4.480469 10 10.003907 10h40c5.523437 0 10.003906-4.476562 10.003906-10 0-5.523437-4.480469-10-10.003906-10zm0 0"/></svg>