<?xml version="1.0" encoding="UTF-8"?>
<svg width="69px" height="71px" viewBox="0 0 69 71" version="1.1" xmlns="http://www.w3.org/2000/svg" xmlns:xlink="http://www.w3.org/1999/xlink">
    <!-- Generator: Sketch 53.2 (72643) - https://sketchapp.com -->
    <title>search (1)</title>
    <desc>Created with Sketch.</desc>
    <g id="Page-1" stroke="none" stroke-width="1" fill="none" fill-rule="evenodd">
        <g id="Aceable" transform="translate(-162.000000, -10805.000000)" fill-rule="nonzero">
            <g id="search-(1)" transform="translate(162.000000, 10805.000000)">
                <g id="background_7_" fill="#48CFAD">
                    <ellipse id="SVGID_1_" cx="34.4998617" cy="35.4998611" rx="34.469994" ry="35.4998611"></ellipse>
                </g>
                <path d="M51.5030478,42.8621223 C58.8302909,35.3444344 58.8333302,23.1587548 51.506087,15.6407903 C44.1788439,8.12282587 32.2945056,8.11826216 24.9674006,15.63595 C18.3191559,22.4571869 17.7336838,33.1549562 23.1146949,40.6525914 L17.316338,46.6018816 C16.9000975,47.0292115 16.8918086,47.7555341 17.3081873,48.1825874 L19.7576933,50.6962279 C20.174072,51.1232812 20.8572149,51.0892608 21.2737318,50.6620692 L27.0667009,44.7185874 C34.4211592,50.3203435 44.8418172,49.696912 51.5030478,42.8621223 Z" id="Path" fill="#ECF0F0"></path>
                <path d="M18.3126528,46.3862233 C17.929405,46.834507 17.8813401,47.5964443 18.2642065,48.0444378 L20.4987167,50.6813327 C20.8819645,51.1293262 21.5820848,51.0936376 21.9654598,50.645499 L23,49.5188416 L23,41 L18.3126528,46.3862233 Z" id="Path" fill="#5D5D5D" opacity="0.3"></path>
                <path d="M48.8995588,39.7528986 C43.432167,45.4157005 34.5677988,45.4157005 29.100407,39.7528986 C23.633152,34.090235 23.633152,24.9093845 29.1006808,19.2469977 C34.5679357,13.5843341 43.432167,13.5843341 48.8995588,19.2469977 C54.3668137,24.9092462 54.3668137,34.090235 48.8995588,39.7528986 Z" id="Path" fill="#76BED6"></path>
                <path d="M28.9495204,39.0503682 C23.6834932,33.784078 23.6834932,25.2156814 28.9495204,19.9498037 C34.2155476,14.6835134 42.7843115,14.6833759 48.0504796,19.9495286 C53.3165068,25.2156814 53.3165068,33.7842155 48.0504796,39.0505058 C42.7843115,44.316521 34.2155476,44.316521 28.9495204,39.0503682 Z" id="Path" fill="#83D2ED"></path>
                <path d="M49.7817209,16.7733941 C46.8199266,13.9496757 43.1329293,12.2957197 39.2346893,12.033857 C35.3824612,11.7749666 31.4714478,13.009526 28.2995094,15.4376267 C27.6009523,15.9722012 28.2514372,17.253129 28.9538401,16.7154336 C31.9057454,14.4558643 35.4132274,13.3327675 38.9962514,13.4897068 C42.6000151,13.6475378 46.1139526,15.208311 48.8450006,17.8122253 C49.4888928,18.4258639 50.4301457,17.3914912 49.7817209,16.7733941 L49.7817209,16.7733941 Z" id="Path" fill="#FBFFFF"></path>
                <path d="M48.3891056,36.3891136 C46.2412464,38.5369621 42.7587536,38.5369621 40.6108944,36.3891136 C38.4630352,34.2411304 38.4630352,30.7590715 40.6108944,28.6110883 C42.7587536,26.4629706 46.2412464,26.4629706 48.3891056,28.6110883 C50.5369648,30.7590715 50.5369648,34.2411304 48.3891056,36.3891136 Z" id="Path" fill="#B0EBFF"></path>
                <path d="M47.560777,24.5607545 C46.9748493,25.1464597 46.0251335,25.1464597 45.4393429,24.560487 C44.8535524,23.9747818 44.8535524,23.0251848 45.4393429,22.4393458 C46.0251335,21.8535068 46.9748493,21.8535068 47.5606399,22.4396134 C48.1462934,23.0253186 48.1465676,23.9749155 47.560777,24.5607545 Z" id="Path" fill="#B0EBFF"></path>
                <path d="M18.686749,44.2517324 L7,56.4958446 C8.44703708,58.5025783 10.0872263,60.3475131 11.8922572,62 L23.7596069,49.5668611 C25.1547649,48.1052542 20.0820464,42.7904106 18.686749,44.2517324 Z" id="Path" fill="#334D5C"></path>
                <path d="M23.7610181,49.5912982 C25.1395785,48.1231438 20.1640545,42.7850124 18.7853563,44.2528804 L15,48.3238803 L15,59 L23.7610181,49.5912982 Z" id="Path" fill="#5D5D5D" opacity="0.3"></path>
                <path d="M24.2829734,50.7379777 C23.9338019,51.0873408 23.3673372,51.0873408 23.0180266,50.7379777 L17.261983,44.9817672 C16.9126723,44.63254 16.9126723,44.0660127 17.261983,43.7167854 L18.7168179,42.2619205 C19.0661285,41.9126932 19.6325932,41.9126932 19.9817647,42.2619205 L25.7378084,48.018131 C26.0873972,48.367494 26.0873972,48.9337498 25.7378084,49.2832486 L24.2829734,50.7379777 Z" id="Path" fill="#EFC84A"></path>
            </g>
        </g>
    </g>
</svg>