<?xml version="1.0" encoding="UTF-8"?>
<svg width="456px" height="200px" viewBox="0 0 456 200" version="1.1" xmlns="http://www.w3.org/2000/svg" xmlns:xlink="http://www.w3.org/1999/xlink">
    <!-- Generator: Sketch 54 (76480) - https://sketchapp.com -->
    <title>Group</title>
    <desc>Created with Sketch.</desc>
    <g id="Page-1" stroke="none" stroke-width="1" fill="none" fill-rule="evenodd">
        <g id="Desktop-HD-(2)-Copy" transform="translate(-600.000000, -720.000000)">
            <g id="Group" transform="translate(600.000000, 720.000000)">
                <rect id="Rectangle-2" fill="#1E4047" x="0" y="0" width="456" height="200"></rect>
                <g id="Group-2-Copy-5" transform="translate(40.000000, 24.000000)">
                    <circle id="Oval-2" fill="#FFFFFF" cx="76.5" cy="76.5" r="76.5"></circle>
                    <rect id="Rectangle-3" fill="#E19239" x="75" y="25" width="15" height="103"></rect>
                    <rect id="Rectangle-3-Copy-2" fill="#1E4047" x="42" y="45" width="23" height="83"></rect>
                    <rect id="Rectangle-3-Copy" fill="#C5B39F" x="100" y="66" width="15" height="62"></rect>
                    <path d="M20.3696629,99.9063646 C38.750877,96.3115972 43.0553069,93.9111602 60.2701702,95.3174062 C86.7148623,97.4776175 116.797938,110.792957 137.613835,90.0712496" id="Path-2" stroke="#1E4047" stroke-width="3"></path>
                </g>
                <path d="M228.24,84.68 L233.28,84.68 L233.28,95.96 L246.52,95.96 L246.52,84.68 L251.56,84.68 L251.56,113 L246.52,113 L246.52,100.52 L233.28,100.52 L233.28,113 L228.24,113 L228.24,84.68 Z M280.56,102.6 C280.56,104.306675 280.26667,105.84666 279.68,107.22 C279.09333,108.59334 278.293338,109.759995 277.28,110.72 C276.266662,111.680005 275.066674,112.419997 273.68,112.94 C272.293326,113.460003 270.786675,113.72 269.16,113.72 C267.533325,113.72 266.026674,113.460003 264.64,112.94 C263.253326,112.419997 262.046672,111.680005 261.02,110.72 C259.993328,109.759995 259.193336,108.59334 258.62,107.22 C258.046664,105.84666 257.76,104.306675 257.76,102.6 L257.76,84.68 L262.8,84.68 L262.8,102.44 C262.8,103.133337 262.906666,103.859996 263.12,104.62 C263.333334,105.380004 263.686664,106.079997 264.18,106.72 C264.673336,107.360003 265.326663,107.886665 266.14,108.3 C266.953337,108.713335 267.959994,108.92 269.16,108.92 C270.360006,108.92 271.366663,108.713335 272.18,108.3 C272.993337,107.886665 273.646664,107.360003 274.14,106.72 C274.633336,106.079997 274.986666,105.380004 275.2,104.62 C275.413334,103.859996 275.52,103.133337 275.52,102.44 L275.52,84.68 L280.56,84.68 L280.56,102.6 Z M286.76,84.68 L297.92,84.68 C299.786676,84.68 301.586658,84.9666638 303.32,85.54 C305.053342,86.1133362 306.58666,86.9866608 307.92,88.16 C309.25334,89.3333392 310.319996,90.8066578 311.12,92.58 C311.920004,94.3533422 312.32,96.439988 312.32,98.84 C312.32,101.266679 311.860005,103.366658 310.94,105.14 C310.019995,106.913342 308.833341,108.379994 307.38,109.54 C305.926659,110.700006 304.313342,111.566664 302.54,112.14 C300.766658,112.713336 299.026675,113 297.32,113 L286.76,113 L286.76,84.68 Z M295.56,108.44 C297.133341,108.44 298.619993,108.260002 300.02,107.9 C301.420007,107.539998 302.639995,106.980004 303.68,106.22 C304.720005,105.459996 305.539997,104.473339 306.14,103.26 C306.740003,102.046661 307.04,100.573342 307.04,98.84 C307.04,97.1333248 306.773336,95.6666728 306.24,94.44 C305.706664,93.2133272 304.966671,92.2200038 304.02,91.46 C303.073329,90.6999962 301.95334,90.1400018 300.66,89.78 C299.36666,89.4199982 297.946674,89.24 296.4,89.24 L291.8,89.24 L291.8,108.44 L295.56,108.44 Z M316.68,110.2 C316.68,109.346662 316.99333,108.613336 317.62,108 C318.24667,107.386664 318.999996,107.08 319.88,107.08 C320.733338,107.08 321.479997,107.37333 322.12,107.96 C322.760003,108.54667 323.08,109.266662 323.08,110.12 C323.08,110.973338 322.76667,111.706664 322.14,112.32 C321.51333,112.933336 320.760004,113.24 319.88,113.24 C319.453331,113.24 319.046669,113.160001 318.66,113 C318.273331,112.839999 317.933335,112.626668 317.64,112.36 C317.346665,112.093332 317.113334,111.773335 316.94,111.4 C316.766666,111.026665 316.68,110.626669 316.68,110.2 Z M354.12,110.92 C350.626649,112.786676 346.720022,113.72 342.4,113.72 C340.213322,113.72 338.206676,113.36667 336.38,112.66 C334.553324,111.95333 332.980007,110.95334 331.66,109.66 C330.339993,108.36666 329.30667,106.813342 328.56,105 C327.81333,103.186658 327.44,101.173344 327.44,98.96 C327.44,96.693322 327.81333,94.6333426 328.56,92.78 C329.30667,90.9266574 330.339993,89.3466732 331.66,88.04 C332.980007,86.7333268 334.553324,85.7266702 336.38,85.02 C338.206676,84.3133298 340.213322,83.96 342.4,83.96 C344.560011,83.96 346.586657,84.2199974 348.48,84.74 C350.373343,85.2600026 352.066659,86.18666 353.56,87.52 L349.84,91.28 C348.933329,90.3999956 347.83334,89.7200024 346.54,89.24 C345.24666,88.7599976 343.880007,88.52 342.44,88.52 C340.973326,88.52 339.646673,88.7799974 338.46,89.3 C337.273327,89.8200026 336.253338,90.5399954 335.4,91.46 C334.546662,92.3800046 333.886669,93.4533272 333.42,94.68 C332.953331,95.9066728 332.72,97.2266596 332.72,98.64 C332.72,100.160008 332.953331,101.559994 333.42,102.84 C333.886669,104.120006 334.546662,105.226662 335.4,106.16 C336.253338,107.093338 337.273327,107.826664 338.46,108.36 C339.646673,108.893336 340.973326,109.16 342.44,109.16 C343.720006,109.16 344.926661,109.040001 346.06,108.8 C347.193339,108.559999 348.199996,108.186669 349.08,107.68 L349.08,101 L343.28,101 L343.28,96.44 L354.12,96.44 L354.12,110.92 Z M358.56,98.96 C358.56,96.693322 358.93333,94.6333426 359.68,92.78 C360.42667,90.9266574 361.459993,89.3466732 362.78,88.04 C364.100007,86.7333268 365.673324,85.7266702 367.5,85.02 C369.326676,84.3133298 371.333322,83.96 373.52,83.96 C375.733344,83.9333332 377.759991,84.2599966 379.6,84.94 C381.440009,85.6200034 383.02666,86.6133268 384.36,87.92 C385.69334,89.2266732 386.73333,90.7999908 387.48,92.64 C388.22667,94.4800092 388.6,96.533322 388.6,98.8 C388.6,101.013344 388.22667,103.026658 387.48,104.84 C386.73333,106.653342 385.69334,108.213327 384.36,109.52 C383.02666,110.826673 381.440009,111.846663 379.6,112.58 C377.759991,113.313337 375.733344,113.693333 373.52,113.72 C371.333322,113.72 369.326676,113.36667 367.5,112.66 C365.673324,111.95333 364.100007,110.95334 362.78,109.66 C361.459993,108.36666 360.42667,106.813342 359.68,105 C358.93333,103.186658 358.56,101.173344 358.56,98.96 Z M363.84,98.64 C363.84,100.160008 364.073331,101.559994 364.54,102.84 C365.006669,104.120006 365.666662,105.226662 366.52,106.16 C367.373338,107.093338 368.393327,107.826664 369.58,108.36 C370.766673,108.893336 372.093326,109.16 373.56,109.16 C375.026674,109.16 376.359994,108.893336 377.56,108.36 C378.760006,107.826664 379.786662,107.093338 380.64,106.16 C381.493338,105.226662 382.153331,104.120006 382.62,102.84 C383.086669,101.559994 383.32,100.160008 383.32,98.64 C383.32,97.2266596 383.086669,95.9066728 382.62,94.68 C382.153331,93.4533272 381.493338,92.3800046 380.64,91.46 C379.786662,90.5399954 378.760006,89.8200026 377.56,89.3 C376.359994,88.7799974 375.026674,88.52 373.56,88.52 C372.093326,88.52 370.766673,88.7799974 369.58,89.3 C368.393327,89.8200026 367.373338,90.5399954 366.52,91.46 C365.666662,92.3800046 365.006669,93.4533272 364.54,94.68 C364.073331,95.9066728 363.84,97.2266596 363.84,98.64 Z M390.12,84.68 L395.92,84.68 L403.64,106.08 L411.6,84.68 L417.04,84.68 L405.6,113 L401.24,113 L390.12,84.68 Z" id="HUD.GOV" fill="#FFFFFF" fill-rule="nonzero"></path>
            </g>
        </g>
    </g>
</svg>