<?xml version="1.0" encoding="UTF-8"?>
<svg width="140px" height="109px" viewBox="0 0 140 109" version="1.1" xmlns="http://www.w3.org/2000/svg" xmlns:xlink="http://www.w3.org/1999/xlink">
    <!-- Generator: Sketch 53.2 (72643) - https://sketchapp.com -->
    <title>Group 4</title>
    <desc>Created with Sketch.</desc>
    <defs>
        <polygon id="path-1" points="0.082079691 0.657 71.9191847 0.657 71.9191847 72.4832639 0.082079691 72.4832639"></polygon>
    </defs>
    <g id="Page-1" stroke="none" stroke-width="1" fill="none" fill-rule="evenodd">
        <g id="Style-Guide" transform="translate(-199.000000, -50.000000)">
            <g id="Group-4" transform="translate(199.186000, 50.000000)">
                <g id="Group-3" transform="translate(0.000000, 0.000000)">
                    <polyline id="Fill-1" fill="#D44C4D" points="4.26325641e-14 89.815 8.833 89.815 8.833 93.119 3.363 93.119 3.363 96.35 8.833 96.35 8.833 99.605 3.363 99.605 3.363 107.616 4.26325641e-14 107.616 4.26325641e-14 89.815"></polyline>
                    <path d="M22.444,92.684 C20.796,92.684 19.412,93.256 18.289,94.402 C17.167,95.547 16.606,97.003 16.606,98.77 C16.606,100.739 17.312,102.296 18.725,103.441 C19.823,104.337 21.083,104.784 22.504,104.784 C24.111,104.784 25.48,104.203 26.611,103.042 C27.741,101.88 28.307,100.448 28.307,98.746 C28.307,97.052 27.737,95.618 26.599,94.444 C25.46,93.271 24.075,92.684 22.444,92.684 Z M22.481,89.368 C24.999,89.368 27.164,90.28 28.977,92.103 C30.789,93.926 31.695,96.148 31.695,98.77 C31.695,101.368 30.801,103.566 29.013,105.365 C27.225,107.164 25.055,108.064 22.504,108.064 C19.833,108.064 17.613,107.14 15.845,105.293 C14.077,103.445 13.193,101.251 13.193,98.71 C13.193,97.008 13.605,95.443 14.428,94.015 C15.252,92.587 16.384,91.455 17.825,90.62 C19.265,89.785 20.817,89.368 22.481,89.368 L22.481,89.368 Z" id="Fill-2" fill="#D44C4D"></path>
                    <path d="M44.05,92.684 C42.402,92.684 41.018,93.256 39.895,94.402 C38.773,95.547 38.211,97.003 38.211,98.77 C38.211,100.739 38.918,102.296 40.331,103.441 C41.429,104.337 42.689,104.784 44.11,104.784 C45.717,104.784 47.086,104.203 48.217,103.042 C49.347,101.88 49.913,100.448 49.913,98.746 C49.913,97.052 49.343,95.618 48.205,94.444 C47.066,93.271 45.681,92.684 44.05,92.684 Z M44.086,89.368 C46.605,89.368 48.77,90.28 50.583,92.103 C52.395,93.926 53.301,96.148 53.301,98.77 C53.301,101.368 52.407,103.566 50.619,105.365 C48.831,107.164 46.661,108.064 44.11,108.064 C41.439,108.064 39.219,107.14 37.451,105.293 C35.683,103.445 34.799,101.251 34.799,98.71 C34.799,97.008 35.211,95.443 36.034,94.015 C36.857,92.587 37.99,91.455 39.431,90.62 C40.871,89.785 42.423,89.368 44.086,89.368 L44.086,89.368 Z" id="Fill-3" fill="#D44C4D"></path>
                    <path d="M60.665,93.083 L60.665,104.312 L62.238,104.312 C63.787,104.312 64.91,104.135 65.607,103.779 C66.305,103.424 66.877,102.826 67.32,101.986 C67.763,101.147 67.986,100.113 67.986,98.885 C67.986,96.996 67.457,95.53 66.4,94.488 C65.449,93.551 63.919,93.083 61.814,93.083 L60.665,93.083 Z M57.301,89.815 L61.314,89.815 C63.902,89.815 65.824,90.136 67.082,90.778 C68.339,91.419 69.375,92.462 70.189,93.906 C71.003,95.35 71.41,97.036 71.41,98.964 C71.41,100.336 71.182,101.596 70.726,102.745 C70.271,103.895 69.642,104.849 68.84,105.607 C68.039,106.365 67.169,106.89 66.235,107.18 C65.3,107.471 63.68,107.616 61.375,107.616 L57.301,107.616 L57.301,89.815 L57.301,89.815 Z" id="Fill-4" fill="#D44C4D"></path>
                    <polyline id="Fill-5" fill="#D44C4D" points="80.224 89.815 83.709 89.815 88.187 102.461 92.731 89.815 96.21 89.815 89.796 107.616 86.529 107.616 80.224 89.815"></polyline>
                    <polygon id="Fill-6" fill="#D44C4D" points="101.907 107.615 105.271 107.615 105.271 89.815 101.907 89.815"></polygon>
                    <path d="M115.692,99.823 L115.692,104.385 L116.542,104.385 C117.949,104.385 118.897,104.208 119.387,103.853 C119.877,103.498 120.121,102.981 120.121,102.304 C120.121,101.537 119.834,100.932 119.259,100.488 C118.685,100.045 117.731,99.823 116.396,99.823 L115.692,99.823 Z M115.692,93.047 L115.692,96.798 L116.433,96.798 C117.259,96.798 117.873,96.625 118.273,96.277 C118.674,95.931 118.875,95.459 118.875,94.862 C118.875,94.305 118.684,93.863 118.303,93.537 C117.923,93.21 117.344,93.047 116.567,93.047 L115.692,93.047 Z M112.304,107.616 L112.304,89.815 L115.103,89.815 C116.726,89.815 117.914,89.92 118.665,90.13 C119.731,90.413 120.579,90.937 121.209,91.703 C121.838,92.47 122.154,93.373 122.154,94.414 C122.154,95.091 122.01,95.707 121.724,96.259 C121.438,96.812 120.972,97.33 120.327,97.814 C121.408,98.322 122.198,98.958 122.699,99.72 C123.199,100.482 123.449,101.384 123.449,102.424 C123.449,103.425 123.19,104.337 122.673,105.159 C122.157,105.982 121.49,106.597 120.674,107.004 C119.859,107.412 118.732,107.616 117.294,107.616 L112.304,107.616 L112.304,107.616 Z" id="Fill-7" fill="#D44C4D"></path>
                    <polyline id="Fill-8" fill="#D44C4D" points="129.913 89.815 139.629 89.815 139.629 93.131 133.277 93.131 133.277 96.35 139.629 96.35 139.629 99.605 133.277 99.605 133.277 104.288 139.629 104.288 139.629 107.616 129.913 107.616 129.913 89.815"></polyline>
                    <g id="Group-26" transform="translate(33.814000, 0.000000)">
                        <mask id="mask-2" fill="white">
                            <use xlink:href="#path-1"></use>
                        </mask>
                        <g id="Clip-25"></g>
                        <path d="M71.269,29.807 C67.53,10.329 48.71,-2.431 29.231,1.307 C21.377,2.815 14.62,6.776 9.59,12.241 L13.405,21.385 C19.185,19.266 24.975,32.932 24.975,32.932 C33.722,49.031 33.935,60.286 33.935,60.286 C33.639,62.68 31.558,63.363 31.558,63.363 C28.46,63.675 27.66,61.651 27.66,61.651 L6.049,16.775 C1.057,24.325 -1.109,33.753 0.731,43.344 C4.067,60.723 19.411,72.743 36.515,72.479 L43.842,50.978 C41.297,49.616 39.98,46.782 40.857,44.206 L50.869,14.823 C51.029,14.353 51.577,14.113 52.095,14.289 C52.614,14.468 52.905,14.992 52.745,15.462 L45.532,36.624 L45.435,36.909 C45.245,37.472 45.591,38.103 46.212,38.313 C46.833,38.523 47.491,38.238 47.685,37.677 L47.782,37.391 L54.993,16.23 C55.153,15.76 55.702,15.52 56.222,15.698 C56.737,15.873 57.028,16.396 56.866,16.869 L49.657,38.032 L49.68,38.039 L49.583,38.322 C49.392,38.885 49.737,39.513 50.359,39.726 C50.98,39.939 51.642,39.653 51.832,39.088 L59.202,17.462 C59.423,17.107 59.897,16.947 60.345,17.102 C60.845,17.275 61.126,17.763 61.006,18.218 L53.68,39.718 C53.487,40.284 53.834,40.912 54.454,41.125 C55.075,41.335 55.734,41.047 55.927,40.484 L56.023,40.2 L56.031,40.202 L63.243,19.04 C63.405,18.57 63.954,18.332 64.47,18.509 C64.988,18.685 65.278,19.209 65.118,19.679 L55.124,49.066 C54.245,51.643 51.47,53.084 48.622,52.607 L42.024,71.968 C42.272,71.925 42.521,71.892 42.769,71.844 C62.247,68.106 75.007,49.285 71.269,29.807" id="Fill-24" fill="#D44C4D" mask="url(#mask-2)"></path>
                    </g>
                </g>
                <path d="M98.284,18.509 C97.768,18.332 97.219,18.57 97.057,19.04 L89.845,40.202 L89.837,40.2 L89.741,40.484 C89.548,41.047 88.889,41.335 88.268,41.125 C87.648,40.912 87.301,40.284 87.494,39.718 L94.82,18.218 C94.94,17.763 94.659,17.275 94.159,17.102 C93.711,16.947 93.237,17.107 93.016,17.462 L85.646,39.088 C85.456,39.653 84.794,39.939 84.173,39.726 C83.551,39.513 83.206,38.885 83.397,38.322 L83.494,38.039 L83.471,38.032 L90.68,16.869 C90.842,16.396 90.551,15.873 90.036,15.698 C89.516,15.52 88.967,15.76 88.807,16.23 L81.596,37.391 L81.499,37.677 C81.305,38.238 80.647,38.523 80.026,38.313 C79.405,38.103 79.059,37.472 79.249,36.909 L79.346,36.624 L86.559,15.462 C86.719,14.992 86.428,14.468 85.909,14.289 C85.391,14.113 84.843,14.353 84.683,14.823 L74.671,44.206 C73.794,46.782 75.111,49.616 77.656,50.978 L70.329,72.479 C72.15,72.451 73.991,72.283 75.838,71.968 L82.436,52.607 C85.284,53.084 88.059,51.643 88.938,49.066 L98.932,19.679 C99.092,19.209 98.802,18.685 98.284,18.509" id="Fill-27" fill="#FFFFFE"></path>
                <path d="M65.372,63.363 C65.372,63.363 67.453,62.68 67.749,60.286 C67.749,60.286 67.536,49.031 58.789,32.932 C58.789,32.932 52.999,19.266 47.219,21.385 L43.404,12.241 C42.104,13.656 40.922,15.174 39.863,16.775 L61.474,61.651 C61.474,61.651 62.274,63.675 65.372,63.363" id="Fill-28" fill="#FFFFFE"></path>
            </g>
        </g>
    </g>
</svg>