<?xml version="1.0" encoding="UTF-8"?>
<svg width="370px" height="155px" viewBox="0 0 370 155" version="1.1" xmlns="http://www.w3.org/2000/svg" xmlns:xlink="http://www.w3.org/1999/xlink">
    <!-- Generator: Sketch 54 (76480) - https://sketchapp.com -->
    <title>Group 2</title>
    <desc>Created with Sketch.</desc>
    <g id="Page-1" stroke="none" stroke-width="1" fill="none" fill-rule="evenodd">
        <g id="Desktop-HD-(2)-Copy" transform="translate(-635.000000, -299.000000)">
            <g id="Group-2" transform="translate(636.000000, 300.000000)">
                <g id="Group-2-Copy-2">
                    <circle id="Oval-2" stroke="#3E3E42" fill="#FFFFFF" cx="76.5" cy="76.5" r="76.5"></circle>
                    <rect id="Rectangle-3" fill="#E19239" x="75" y="25" width="15" height="103"></rect>
                    <rect id="Rectangle-3-Copy-2" fill="#1E4047" x="42" y="45" width="23" height="83"></rect>
                    <rect id="Rectangle-3-Copy" fill="#C5B39F" x="100" y="66" width="15" height="62"></rect>
                    <path d="M20.3696629,99.9063646 C38.750877,96.3115972 43.0553069,93.9111602 60.2701702,95.3174062 C86.7148623,97.4776175 116.797938,110.792957 137.613835,90.0712496" id="Path-2" stroke="#1E4047" stroke-width="3"></path>
                </g>
                <path d="M180.24,57.68 L185.28,57.68 L185.28,68.96 L198.52,68.96 L198.52,57.68 L203.56,57.68 L203.56,86 L198.52,86 L198.52,73.52 L185.28,73.52 L185.28,86 L180.24,86 L180.24,57.68 Z M232.56,75.6 C232.56,77.3066752 232.26667,78.8466598 231.68,80.22 C231.09333,81.5933402 230.293338,82.7599952 229.28,83.72 C228.266662,84.6800048 227.066674,85.4199974 225.68,85.94 C224.293326,86.4600026 222.786675,86.72 221.16,86.72 C219.533325,86.72 218.026674,86.4600026 216.64,85.94 C215.253326,85.4199974 214.046672,84.6800048 213.02,83.72 C211.993328,82.7599952 211.193336,81.5933402 210.62,80.22 C210.046664,78.8466598 209.76,77.3066752 209.76,75.6 L209.76,57.68 L214.8,57.68 L214.8,75.44 C214.8,76.1333368 214.906666,76.8599962 215.12,77.62 C215.333334,78.3800038 215.686664,79.0799968 216.18,79.72 C216.673336,80.3600032 217.326663,80.8866646 218.14,81.3 C218.953337,81.7133354 219.959994,81.92 221.16,81.92 C222.360006,81.92 223.366663,81.7133354 224.18,81.3 C224.993337,80.8866646 225.646664,80.3600032 226.14,79.72 C226.633336,79.0799968 226.986666,78.3800038 227.2,77.62 C227.413334,76.8599962 227.52,76.1333368 227.52,75.44 L227.52,57.68 L232.56,57.68 L232.56,75.6 Z M238.76,57.68 L249.92,57.68 C251.786676,57.68 253.586658,57.9666638 255.32,58.54 C257.053342,59.1133362 258.58666,59.9866608 259.92,61.16 C261.25334,62.3333392 262.319996,63.8066578 263.12,65.58 C263.920004,67.3533422 264.32,69.439988 264.32,71.84 C264.32,74.2666788 263.860005,76.3666578 262.94,78.14 C262.019995,79.9133422 260.833341,81.3799942 259.38,82.54 C257.926659,83.7000058 256.313342,84.5666638 254.54,85.14 C252.766658,85.7133362 251.026675,86 249.32,86 L238.76,86 L238.76,57.68 Z M247.56,81.44 C249.133341,81.44 250.619993,81.2600018 252.02,80.9 C253.420007,80.5399982 254.639995,79.9800038 255.68,79.22 C256.720005,78.4599962 257.539997,77.4733394 258.14,76.26 C258.740003,75.0466606 259.04,73.573342 259.04,71.84 C259.04,70.1333248 258.773336,68.6666728 258.24,67.44 C257.706664,66.2133272 256.966671,65.2200038 256.02,64.46 C255.073329,63.6999962 253.95334,63.1400018 252.66,62.78 C251.36666,62.4199982 249.946674,62.24 248.4,62.24 L243.8,62.24 L243.8,81.44 L247.56,81.44 Z M268.68,83.2 C268.68,82.3466624 268.99333,81.6133364 269.62,81 C270.24667,80.3866636 270.999996,80.08 271.88,80.08 C272.733338,80.08 273.479997,80.3733304 274.12,80.96 C274.760003,81.5466696 275.08,82.2666624 275.08,83.12 C275.08,83.9733376 274.76667,84.7066636 274.14,85.32 C273.51333,85.9333364 272.760004,86.24 271.88,86.24 C271.453331,86.24 271.046669,86.1600008 270.66,86 C270.273331,85.8399992 269.933335,85.626668 269.64,85.36 C269.346665,85.093332 269.113334,84.7733352 268.94,84.4 C268.766666,84.0266648 268.68,83.6266688 268.68,83.2 Z M306.12,83.92 C302.626649,85.786676 298.720022,86.72 294.4,86.72 C292.213322,86.72 290.206676,86.3666702 288.38,85.66 C286.553324,84.9533298 284.980007,83.9533398 283.66,82.66 C282.339993,81.3666602 281.30667,79.8133424 280.56,78 C279.81333,76.1866576 279.44,74.1733444 279.44,71.96 C279.44,69.693322 279.81333,67.6333426 280.56,65.78 C281.30667,63.9266574 282.339993,62.3466732 283.66,61.04 C284.980007,59.7333268 286.553324,58.7266702 288.38,58.02 C290.206676,57.3133298 292.213322,56.96 294.4,56.96 C296.560011,56.96 298.586657,57.2199974 300.48,57.74 C302.373343,58.2600026 304.066659,59.18666 305.56,60.52 L301.84,64.28 C300.933329,63.3999956 299.83334,62.7200024 298.54,62.24 C297.24666,61.7599976 295.880007,61.52 294.44,61.52 C292.973326,61.52 291.646673,61.7799974 290.46,62.3 C289.273327,62.8200026 288.253338,63.5399954 287.4,64.46 C286.546662,65.3800046 285.886669,66.4533272 285.42,67.68 C284.953331,68.9066728 284.72,70.2266596 284.72,71.64 C284.72,73.1600076 284.953331,74.5599936 285.42,75.84 C285.886669,77.1200064 286.546662,78.226662 287.4,79.16 C288.253338,80.093338 289.273327,80.826664 290.46,81.36 C291.646673,81.893336 292.973326,82.16 294.44,82.16 C295.720006,82.16 296.926661,82.0400012 298.06,81.8 C299.193339,81.5599988 300.199996,81.1866692 301.08,80.68 L301.08,74 L295.28,74 L295.28,69.44 L306.12,69.44 L306.12,83.92 Z M310.56,71.96 C310.56,69.693322 310.93333,67.6333426 311.68,65.78 C312.42667,63.9266574 313.459993,62.3466732 314.78,61.04 C316.100007,59.7333268 317.673324,58.7266702 319.5,58.02 C321.326676,57.3133298 323.333322,56.96 325.52,56.96 C327.733344,56.9333332 329.759991,57.2599966 331.6,57.94 C333.440009,58.6200034 335.02666,59.6133268 336.36,60.92 C337.69334,62.2266732 338.73333,63.7999908 339.48,65.64 C340.22667,67.4800092 340.6,69.533322 340.6,71.8 C340.6,74.0133444 340.22667,76.0266576 339.48,77.84 C338.73333,79.6533424 337.69334,81.2133268 336.36,82.52 C335.02666,83.8266732 333.440009,84.846663 331.6,85.58 C329.759991,86.313337 327.733344,86.6933332 325.52,86.72 C323.333322,86.72 321.326676,86.3666702 319.5,85.66 C317.673324,84.9533298 316.100007,83.9533398 314.78,82.66 C313.459993,81.3666602 312.42667,79.8133424 311.68,78 C310.93333,76.1866576 310.56,74.1733444 310.56,71.96 Z M315.84,71.64 C315.84,73.1600076 316.073331,74.5599936 316.54,75.84 C317.006669,77.1200064 317.666662,78.226662 318.52,79.16 C319.373338,80.093338 320.393327,80.826664 321.58,81.36 C322.766673,81.893336 324.093326,82.16 325.56,82.16 C327.026674,82.16 328.359994,81.893336 329.56,81.36 C330.760006,80.826664 331.786662,80.093338 332.64,79.16 C333.493338,78.226662 334.153331,77.1200064 334.62,75.84 C335.086669,74.5599936 335.32,73.1600076 335.32,71.64 C335.32,70.2266596 335.086669,68.9066728 334.62,67.68 C334.153331,66.4533272 333.493338,65.3800046 332.64,64.46 C331.786662,63.5399954 330.760006,62.8200026 329.56,62.3 C328.359994,61.7799974 327.026674,61.52 325.56,61.52 C324.093326,61.52 322.766673,61.7799974 321.58,62.3 C320.393327,62.8200026 319.373338,63.5399954 318.52,64.46 C317.666662,65.3800046 317.006669,66.4533272 316.54,67.68 C316.073331,68.9066728 315.84,70.2266596 315.84,71.64 Z M342.12,57.68 L347.92,57.68 L355.64,79.08 L363.6,57.68 L369.04,57.68 L357.6,86 L353.24,86 L342.12,57.68 Z" id="HUD.GOV" fill="#3E3E42" fill-rule="nonzero"></path>
            </g>
        </g>
    </g>
</svg>