<?xml version="1.0" encoding="UTF-8"?>
<svg width="364px" height="80px" viewBox="0 0 364 80" version="1.1" xmlns="http://www.w3.org/2000/svg" xmlns:xlink="http://www.w3.org/1999/xlink">
    <!-- Generator: Sketch 54 (76480) - https://sketchapp.com -->
    <title>aceable-logo</title>
    <desc>Created with Sketch.</desc>
    <g id="Page-1" stroke="none" stroke-width="1" fill="none" fill-rule="evenodd">
        <g id="Aceable" transform="translate(-542.000000, -170.000000)" fill="#12BDCD" fill-rule="nonzero">
            <g id="aceable-logo" transform="translate(542.000000, 170.000000)">
                <path d="M258.725,43.0431 L261.769,36.1731 L264.812,43.0431 L258.725,43.0431 L258.725,43.0431 Z M262.185,19.5891 C262.102,19.3951 261.936,19.3031 261.769,19.3251 C261.602,19.3031 261.435,19.3951 261.352,19.5891 L244.989,53.3431 L254.16,53.3431 L255.979,49.3261 L267.559,49.3261 L269.378,53.3431 L278.548,53.3431 L262.185,19.5891 L262.185,19.5891 Z M339.201,20.1441 L362.489,20.1441 L362.489,27.6141 L348.086,27.6141 L348.086,33.1131 L360.096,33.1131 L360.096,40.1931 L348.086,40.1931 L348.086,45.8731 L363.172,45.8731 L363.172,53.3431 L339.201,53.3431 L339.201,20.1441 L339.201,20.1441 Z M312.106,20.1441 L320.991,20.1441 L320.991,45.8731 L335.101,45.8731 L335.101,53.3431 L312.106,53.3431 L312.106,20.1441 L312.106,20.1441 Z M294.922,46.3121 C298.339,46.3121 298.77,44.2151 298.77,42.5531 C298.77,41.0701 298.286,39.3291 294.922,39.3291 L289.552,39.3291 L289.552,46.3121 L294.922,46.3121 L294.922,46.3121 Z M293.848,33.1791 C296.628,33.1791 297.249,31.8661 297.249,29.8591 C297.249,27.8591 295.898,27.1741 293.946,27.1741 L289.552,27.1741 L289.552,33.1791 L293.848,33.1791 L293.848,33.1791 Z M280.959,20.1441 L294.531,20.1441 C301.122,20.1441 306.025,23.1711 306.025,28.2481 C306.025,33.3181 303.82,34.9181 301.672,35.9431 C305.285,36.9691 307.476,39.4671 307.476,43.3831 C307.476,49.7301 303.368,53.3431 295.117,53.3431 L280.959,53.3431 L280.959,20.1441 L280.959,20.1441 Z M218.713,20.1441 L242.001,20.1441 L242.001,27.6141 L227.599,27.6141 L227.599,33.0251 L239.609,33.0251 L239.609,40.1041 L227.599,40.1041 L227.599,45.8731 L242.685,45.8731 L242.685,53.3431 L218.713,53.3431 L218.713,20.1441 L218.713,20.1441 Z M200.7,53.5601 C191.375,53.5601 183.417,46.5291 183.417,36.5211 C183.417,26.5121 191.326,19.5311 200.211,19.5311 C207.388,19.5311 211.782,22.5581 214.565,26.6591 L207.876,31.1991 C206.607,29.2471 204.556,27.2451 200.358,27.2451 C195.476,27.2451 192.497,31.2971 192.497,36.5211 C192.497,41.7451 195.573,45.8461 200.65,45.8461 C204.947,45.8461 207.046,43.8931 208.462,41.2561 L215.297,45.6501 C212.026,51.1681 207.437,53.5601 200.7,53.5601 L200.7,53.5601 Z M165.222,43.0431 L168.265,36.1731 L171.309,43.0431 L165.222,43.0431 L165.222,43.0431 Z M168.682,19.5891 C168.599,19.3951 168.432,19.3031 168.265,19.3251 C168.098,19.3031 167.932,19.3951 167.849,19.5891 L151.486,53.3431 L160.656,53.3431 L162.475,49.3261 L174.056,49.3261 L175.875,53.3431 L185.045,53.3431 L168.682,19.5891 L168.682,19.5891 Z" id="Fill-3"></path>
                <path d="M48.9514,36.0574 L4.7064,36.0574 C6.7174,41.2404 9.2874,46.1444 12.3384,50.6994 L41.8524,50.6994 L48.9514,36.0574 Z" id="Fill-5"></path>
                <path d="M58.2641,16.8507 L1.3911,16.8507 C0.6741,16.8507 0.1111,17.4767 0.2001,18.1877 C0.7661,22.7247 1.7351,27.1347 3.0691,31.3847 L51.2171,31.3847 L58.2641,16.8507 Z" id="Fill-7"></path>
                <path d="M39.5866,55.3715 L15.7336,55.3715 C20.0896,60.9105 25.2066,65.8205 30.9226,69.9535 C31.5376,70.3975 32.4026,70.1875 32.7336,69.5055 L39.5866,55.3715 Z" id="Fill-9"></path>
                <path d="M100.1173,36.0574 L144.3623,36.0574 C142.3513,41.2404 139.7813,46.1444 136.7303,50.6994 L107.2163,50.6994 L100.1173,36.0574 Z" id="Fill-11"></path>
                <path d="M90.8046,16.8507 L147.6776,16.8507 C148.3946,16.8507 148.9576,17.4767 148.8686,18.1877 C148.3026,22.7247 147.3336,27.1347 145.9996,31.3847 L97.8516,31.3847 L90.8046,16.8507 Z" id="Fill-13"></path>
                <path d="M109.4821,55.3715 L133.3351,55.3715 C128.9791,60.9105 123.8621,65.8205 118.1461,69.9535 C117.5311,70.3975 116.6661,70.1875 116.3351,69.5055 L109.4821,55.3715 Z" id="Fill-15"></path>
                <path d="M67.5541,55.4093 L74.6361,39.4253 L81.7171,55.4093 L67.5541,55.4093 Z M75.6051,0.8403 C75.4121,0.3893 75.0241,0.1743 74.6361,0.2263 C74.2471,0.1743 73.8601,0.3893 73.6661,0.8403 L35.5961,79.3733 L56.9321,79.3733 L61.1641,70.0283 L88.1081,70.0283 L92.3401,79.3733 L113.6751,79.3733 L75.6051,0.8403 Z" id="Fill-17"></path>
            </g>
        </g>
    </g>
</svg>