<?xml version="1.0" encoding="UTF-8"?>
<svg width="948px" height="380px" viewBox="0 0 948 380" version="1.1" xmlns="http://www.w3.org/2000/svg" xmlns:xlink="http://www.w3.org/1999/xlink">
    <!-- Generator: Sketch 53.2 (72643) - https://sketchapp.com -->
    <title>Group 14</title>
    <desc>Created with Sketch.</desc>
    <g id="Page-1" stroke="none" stroke-width="1" fill="none" fill-rule="evenodd">
        <g id="Aceable" transform="translate(-273.000000, -7139.000000)">
            <g id="Group-14" transform="translate(274.000000, 7140.000000)">
                <g id="Group-9">
                    <ellipse id="Oval" stroke="#979797" fill="#FFFFFF" cx="122" cy="122.5" rx="122" ry="122.5"></ellipse>
                    <text id="What-happens-when-st" font-family="Raleway-Medium, Raleway" font-size="25" font-weight="400" fill="#696969">
                        <tspan x="37.075" y="86">What happens </tspan>
                        <tspan x="35.95" y="116">when students </tspan>
                        <tspan x="41.9125" y="146">pass the test? </tspan>
                        <tspan x="48.2125" y="176">( notification)</tspan>
                    </text>
                </g>
                <g id="Group-8" transform="translate(351.000000, 0.000000)">
                    <ellipse id="Oval-Copy-7" stroke="#979797" fill="#FFFFFF" cx="122" cy="122.5" rx="122" ry="122.5"></ellipse>
                    <text id="How-do-they-find-the" font-family="Raleway-Medium, Raleway" font-size="25" font-weight="400" fill="#696969">
                        <tspan x="24.225" y="101">How do they find </tspan>
                        <tspan x="42.2625" y="131">the certificate </tspan>
                        <tspan x="33.8875" y="161">later? ( nav bar)</tspan>
                    </text>
                </g>
                <g id="Group-7" transform="translate(702.000000, 0.000000)">
                    <ellipse id="Oval-Copy-8" stroke="#979797" fill="#FFFFFF" cx="122" cy="122.5" rx="122" ry="122.5"></ellipse>
                    <text id="How-do-they-locate-i" font-family="Raleway-Medium, Raleway" font-size="25" font-weight="400" fill="#696969">
                        <tspan x="48.6125" y="71">How do they </tspan>
                        <tspan x="39.7625" y="101">locate it in the </tspan>
                        <tspan x="68.6" y="131">account? </tspan>
                        <tspan x="31.4875" y="161">( downolad and </tspan>
                        <tspan x="91.775" y="191">print)</tspan>
                    </text>
                </g>
                <path d="M473.5,245 L473.5,301.503385" id="Line-9" stroke="#979797" stroke-linecap="square"></path>
                <path d="M824,245 L516.5,342.289722" id="Line-10" stroke="#979797" stroke-linecap="square"></path>
                <path d="M430,246 L122.5,343.289722" id="Line-10-Copy" stroke="#979797" stroke-linecap="square" transform="translate(276.000000, 295.000000) scale(-1, 1) translate(-276.000000, -295.000000) "></path>
                <g id="question-(2)" transform="translate(438.000000, 308.000000)" fill-rule="nonzero">
                    <path d="M71,35.5008586 C71,15.8928312 55.1060731,0 35.5005724,0 C15.89407,-2.04985169e-15 0,15.8928312 0,35.5008586 C0,55.1058809 15.89407,71 35.5005724,71 C55.1060731,71 71,55.1058809 71,35.5008586 Z" id="Path" fill="#FCB11A"></path>
                    <path d="M20,25.2522508 C20,23.2444652 20.6505587,21.209986 21.9519672,19.1492462 C23.2529389,17.0885065 25.1520401,15.3818526 27.6479599,14.0289961 C30.1440255,12.6765725 33.0560291,12 36.3839709,12 C39.4770008,12 42.2079782,12.5657583 44.5760291,13.6961207 C46.9440801,14.8270603 48.7729844,16.3647513 50.0640528,18.3090496 C51.3545386,20.2539251 52,22.3671862 52,24.6498429 C52,26.4465333 51.6319763,28.021451 50.895929,29.3737303 C50.1598817,30.7265868 49.284897,31.8943201 48.2718489,32.8769302 C47.2583639,33.859829 45.4397997,35.5138172 42.8158653,37.8387507 C42.0904494,38.4941127 41.5087769,39.0702599 41.0718671,39.5667594 C40.6343748,40.0635474 40.308877,40.5179144 40.0958107,40.9298604 C39.8823074,41.3420949 39.7167186,41.7541851 39.5997724,42.1664197 C39.4822437,42.5783656 39.3063147,43.3026979 39.0718398,44.3381179 C38.6663875,46.5365097 37.3968734,47.635417 35.2638798,47.635417 C34.1544203,47.635417 33.2208897,47.2762809 32.4638707,46.5574317 C31.7064148,45.8390152 31.3279053,44.771563 31.3279053,43.3553635 C31.3279053,41.5798837 31.6049061,40.0421926 32.1599272,38.7424346 C32.7145113,37.442388 33.450413,36.3010596 34.3679235,35.3184495 C35.2848515,34.3355508 36.5224713,33.1679618 38.079909,31.8151053 C39.4449607,30.6316444 40.4319399,29.7384937 41.0399727,29.1360859 C41.6480055,28.533678 42.1599181,27.8630214 42.5760018,27.1228172 C42.9919399,26.3831903 43.2000546,25.5802203 43.2000546,24.7133302 C43.2000546,23.0225482 42.5650791,21.5959599 41.2960018,20.4332767 C40.0264877,19.2711707 38.3889498,18.6895405 36.3839709,18.6895405 C34.0368916,18.6895405 32.3089134,19.2760765 31.1998908,20.4491485 C30.0904312,21.6222206 29.151949,23.3500849 28.3838616,25.6327416 C27.6584458,28.021451 26.2823256,29.2153007 24.2557925,29.2153007 C23.0606986,29.2153007 22.0527478,28.7981603 21.2317943,27.9630138 C20.4105496,27.128156 20,26.2246164 20,25.2522508 Z M35.6160291,60 C34.3144749,60 33.1785095,59.5822825 32.2079873,58.7475689 C31.2370281,57.9129996 30.7519126,56.7452663 30.7519126,55.244369 C30.7519126,53.912723 31.2208624,52.7927495 32.1599272,51.8837269 C33.0984094,50.9751371 34.2503948,50.5204816 35.6158835,50.5204816 C36.9599636,50.5204816 38.0903948,50.9751371 39.0079053,51.8837269 C39.9248333,52.7927495 40.3838798,53.912723 40.3838798,55.244369 C40.3838798,56.7240557 39.9038616,57.8865946 38.9438252,58.7318413 C37.9837888,59.5770881 36.8746205,60 35.6160291,60 Z" id="Shape" fill="#FFFFFF"></path>
                </g>
            </g>
        </g>
    </g>
</svg>