<?xml version="1.0" encoding="UTF-8"?>
<svg width="71px" height="71px" viewBox="0 0 71 71" version="1.1" xmlns="http://www.w3.org/2000/svg" xmlns:xlink="http://www.w3.org/1999/xlink">
    <!-- Generator: Sketch 53.2 (72643) - https://sketchapp.com -->
    <title>Group 4</title>
    <desc>Created with Sketch.</desc>
    <g id="Page-1" stroke="none" stroke-width="1" fill="none" fill-rule="evenodd">
        <g id="Aceable" transform="translate(-1178.000000, -11030.000000)">
            <g id="Group-4" transform="translate(1178.000000, 11030.000000)">
                <circle id="Oval-Copy-5" fill="#E9573E" cx="35.5" cy="35.5" r="35.5"></circle>
                <g id="cloud-computing" transform="translate(11.000000, 16.000000)" fill-rule="nonzero">
                    <path d="M43.3751574,21.2666667 C44.8290733,18.0795699 45.0713926,14.0752688 42.4866532,11.4602151 C39.982687,8.92688172 36.2671241,8.27311828 33.116973,9.58064516 C33.116973,4.75913978 29.4014102,1 24.7165701,1 C19.9509569,1 16.154621,4.84086022 16.154621,9.66236559 L16.154621,9.66236559 C15.3468899,9.33548387 14.7007051,9.17204301 13.8929741,9.17204301 C11.0659154,9.17204301 9.7735457,12.0322581 9.7735457,14.8924731 C9.7735457,15.627957 8.88504155,15.7913978 9.12736086,16.3634409 C8.96581465,16.3634409 8.72349534,16.2817204 8.56194913,16.2817204 C6.70416771,16.2817204 6.30030219,18.2430108 6.30030219,20.1225806 C6.30030219,20.6946237 5.33102493,20.6946237 5.57334424,21.1849462 C2.34242004,22.4107527 0,25.6795699 0,29.3569892 C0,34.2602151 2.26164694,38.1827957 7.02726013,39 L42.9712919,39 C47.736905,38.1827957 49.998552,34.2602151 49.998552,29.4387097 C50.0793251,25.6795699 46.7676278,22.4924731 43.3751574,21.2666667 Z" id="Path" fill="#07ADAD"></path>
                    <g id="Group" fill="#1BCEB8">
                        <path d="M44.1935484,20.4456522 C45.6451613,17.223913 45,13.2586957 42.4193548,10.6152174 C39.9193548,8.05434783 36.2096774,7.39347826 33.0645161,8.71521739 C33.0645161,3.92391304 29.3548387,0.0413043478 24.6774194,0.0413043478 C19.9193548,0.0413043478 16.1290323,4.00652174 16.1290323,8.88043478 L16.1290323,8.88043478 C15.3225806,8.55 14.6774194,8.38478261 13.8709677,8.38478261 C11.0483871,8.38478261 8.70967742,10.6978261 8.70967742,13.5891304 C8.70967742,14.3326087 8.87096774,14.9934783 9.11290323,15.6543478 C8.9516129,15.6543478 8.70967742,15.5717391 8.5483871,15.5717391 C6.69354839,15.5717391 5.24193548,17.0586957 5.24193548,18.9586957 C5.24193548,19.5369565 5.40322581,20.0326087 5.64516129,20.5282609 C2.33870968,21.7673913 0,25.1543478 0,28.9543478 C0,33.8282609 3.87096774,37.9586957 8.62903226,37.9586957 L41.4516129,37.9586957 C46.1290323,37.9586957 50,33.8282609 50,28.9543478 C50,25.1543478 47.5806452,21.6847826 44.1935484,20.4456522 Z" id="Path"></path>
                        <ellipse id="Oval" cx="36.5322581" cy="3.75869565" rx="1.93548387" ry="1.9826087"></ellipse>
                    </g>
                    <path d="M40,6 C40.5454545,6 41,5.54545455 41,5 C41,4.45454545 40.5454545,4 40,4 C39.4545455,4 39,4.45454545 39,5 C39,5.54545455 39.4545455,6 40,6 Z" id="Path" fill="#07ADAD"></path>
                    <g id="Group" transform="translate(8.000000, 0.000000)" fill="#08B5AC">
                        <path d="M32.9034146,2.27173913 C33.1492683,2.27173913 33.395122,2.02391304 33.395122,1.77608696 C33.395122,1.52826087 33.1492683,1.28043478 32.9034146,1.28043478 C32.657561,1.28043478 32.4117073,1.52826087 32.4117073,1.77608696 C32.4117073,2.10652174 32.5756098,2.27173913 32.9034146,2.27173913 Z" id="Path"></path>
                        <path d="M42,28.9543478 C42,25.0717391 39.5414634,21.7673913 36.0995122,20.5282609 C37.5746341,17.3065217 36.9190244,13.3413043 34.2965854,10.6152174 C31.7560976,8.05434783 27.9863415,7.39347826 24.7902439,8.6326087 C24.7902439,3.92391304 21.0204878,0.0413043478 16.2673171,0.0413043478 C11.4321951,0.0413043478 7.5804878,4.00652174 7.5804878,8.88043478 L7.5804878,8.88043478 C6.76097561,8.55 6.10536585,8.38478261 5.28585366,8.38478261 C2.41756098,8.38478261 0.0409756098,10.6978261 0.0409756098,13.5891304 C0.0409756098,14.25 0.122926829,15.076087 0.368780488,15.6543478 L22.3317073,37.9586957 L33.3131707,37.9586957 C38.0663415,37.9586957 42,33.8282609 42,28.9543478 Z" id="Path"></path>
                    </g>
                    <g id="Group" transform="translate(17.000000, 15.000000)" fill="#07ADAD">
                        <path d="M8,18.9182796 L0.651851852,11.3182796 C-0.217283951,10.4193548 -0.217283951,8.86666667 0.651851852,7.96774194 C1.52098765,7.0688172 3.02222222,7.0688172 3.89135802,7.96774194 L8,12.2172043 L12.108642,7.96774194 C12.9777778,7.0688172 14.4790123,7.0688172 15.3481481,7.96774194 C16.217284,8.86666667 16.217284,10.4193548 15.3481481,11.3182796 L8,18.9182796 Z" id="Path"></path>
                        <path d="M8,15.5677419 C6.73580247,15.5677419 5.62962963,14.5053763 5.62962963,13.1978495 L5.62962963,2.41075269 C5.62962963,1.10322581 6.73580247,0.0408602151 8,0.0408602151 C9.26419753,0.0408602151 10.3703704,1.10322581 10.3703704,2.41075269 L10.3703704,13.1978495 C10.3703704,14.5053763 9.26419753,15.5677419 8,15.5677419 Z" id="Path"></path>
                    </g>
                    <g id="Group" transform="translate(17.000000, 13.000000)" fill="#FFFFFF">
                        <path d="M8,18.9591398 L0.651851852,11.3591398 C-0.217283951,10.4602151 -0.217283951,8.90752688 0.651851852,8.00860215 C1.52098765,7.10967742 3.02222222,7.10967742 3.89135802,8.00860215 L8,12.2580645 L12.108642,8.00860215 C12.9777778,7.10967742 14.4790123,7.10967742 15.3481481,8.00860215 C16.217284,8.90752688 16.217284,10.4602151 15.3481481,11.3591398 L8,18.9591398 Z" id="Path"></path>
                        <path d="M8,15.6086022 C6.73580247,15.6086022 5.62962963,14.5462366 5.62962963,13.2387097 L5.62962963,2.4516129 C5.62962963,1.14408602 6.73580247,0.0817204301 8,0.0817204301 C9.26419753,0.0817204301 10.3703704,1.14408602 10.3703704,2.4516129 L10.3703704,13.2387097 C10.3703704,14.5462366 9.26419753,15.6086022 8,15.6086022 Z" id="Path"></path>
                    </g>
                </g>
            </g>
        </g>
    </g>
</svg>