<?xml version="1.0" encoding="UTF-8"?>
<svg width="60px" height="71px" viewBox="0 0 60 71" version="1.1" xmlns="http://www.w3.org/2000/svg" xmlns:xlink="http://www.w3.org/1999/xlink">
    <!-- Generator: Sketch 53.2 (72643) - https://sketchapp.com -->
    <title>pantone</title>
    <desc>Created with Sketch.</desc>
    <g id="Page-1" stroke="none" stroke-width="1" fill="none" fill-rule="evenodd">
        <g id="Aceable" transform="translate(-1184.000000, -10805.000000)" fill-rule="nonzero">
            <g id="pantone" transform="translate(1184.000000, 10805.000000)">
                <path d="M0.351126761,39.5912871 L6.78577465,28.3506515 C7.45140845,27.187798 8.94915493,26.8001802 10.1140845,27.4646277 L57.5974648,55.0954376 C58.7623944,55.7598851 59.1507042,57.2549624 58.4850704,58.4178158 L52.0504225,69.6584515 C51.3847887,70.821305 49.8870423,71.2089228 48.7221127,70.5444752 L1.23859155,42.9136653 C0.0736619718,42.2492178 -0.314507042,40.7541406 0.351126761,39.5912871 Z" id="Path" fill="#FF2A70"></path>
                <path d="M6.84126761,28.5722277 L6.73028169,28.4614396 L5.45450704,30.7317525 L41.8991549,63.1800178 C41.8991549,63.1800178 6.84126761,28.5722277 6.84126761,28.5722277 Z" id="Path" fill="#CF245B"></path>
                <path d="M52.0502817,69.6584515 L58.4849296,58.4178158 C59.1505634,57.2549624 58.7622535,55.7598851 57.5973239,55.0954376 L42.5647887,46.3466911 L33.1901408,61.5187584 L48.7221127,70.5444752 C49.8869014,71.2089228 51.3846479,70.821305 52.0502817,69.6584515 Z" id="Path" fill="#D6D6D6"></path>
                <polygon id="Path" fill="#CACACA" points="35.8526761 57.1997089 35.5753521 57.5873267 41.843662 63.1798772"></polygon>
                <path d="M6.84126761,25.1944554 L15.9385915,16.1687386 C16.8815493,15.2274614 18.4347887,15.2274614 19.3777465,16.1687386 L58.0967606,54.4311307 C59.0397183,55.3724079 59.0397183,56.8674851 58.0967606,57.808903 L48.9994366,66.8346198 C48.0564789,67.775897 46.5032394,67.775897 45.5602817,66.8346198 L6.84126761,28.5722277 C5.89816901,27.6308099 5.89816901,26.1357327 6.84126761,25.1944554 Z" id="Path" fill="#E9573E"></path>
                <path d="M15.3283099,16.7777921 L13.2204225,18.8265287 L37.6277465,55.3722673 C37.6277465,55.3722673 15.3283099,16.7777921 15.3283099,16.7777921 Z" id="Path" fill="#B54531"></path>
                <path d="M58.0966197,57.8087624 C59.0395775,56.8674851 59.0395775,55.3724079 58.0966197,54.4309901 L44.9498592,41.4738416 L32.3023944,53.7111485 L45.56,66.8344792 C46.5029577,67.7757564 48.0561972,67.7757564 48.9991549,66.8344792 C48.9994366,66.8344792 58.0966197,57.8087624 58.0966197,57.8087624 Z" id="Path" fill="#E0E0E0"></path>
                <path d="M16.2159155,13.4555545 L27.4766197,6.9769802 C28.6415493,6.31253267 30.1392958,6.7001505 30.8049296,7.86300396 L58.4295775,55.7046317 C59.0952113,56.8674851 58.7069014,58.3625624 57.5419718,59.0270099 L46.2812676,65.5055842 C45.116338,66.1700317 43.6185915,65.7824139 42.9529577,64.6195604 L15.3283099,16.7777921 C14.6626761,15.6150792 15.0509859,14.120002 16.2159155,13.4555545 Z" id="Path" fill="#48CFAD"></path>
                <polygon id="Path" fill="#D1D1D1" points="35.0760563 50.9979644 34.8542254 51.2194 37.6277465 55.3722673"></polygon>
                <path d="M46.3367606,65.5609782 L57.5974648,59.082404 C58.7623944,58.4179564 59.1507042,56.9228792 58.4850704,55.7600257 L48.8330986,39.0374871 L33.5784507,48.4508218 L42.9530986,64.6749545 C43.6742254,65.8378079 45.171831,66.2254257 46.3367606,65.5609782 Z" id="Path" fill="#EBEBEB"></path>
                <path d="M28.4195775,7.97365149 C28.3085915,7.5306396 28.3085915,7.08762772 28.4195775,6.64475644 C28.0867606,6.7001505 27.8094366,6.81093861 27.4766197,6.9769802 L25.2022535,8.30587525 L40.8450704,53.7112891 L28.4195775,7.97365149 Z M46.2257746,61.7955881 L46.3367606,61.7955881 L46.3367606,61.7401941 L46.2257746,61.7955881 Z" id="Shape" fill="#3AA88D"></path>
                <path d="M46.2257746,61.7955881 L46.3367606,61.7955881 L46.3367606,61.7401941 L46.2257746,61.7955881 Z M38.5708451,45.3500198 L38.0715493,45.6822436 L40.8450704,53.7112891 L38.5708451,45.3500198 Z" id="Shape" fill="#DBDBDB"></path>
                <path d="M30.083662,5.03889109 L42.6201408,1.71651287 C43.8959155,1.38428911 45.2273239,2.10413069 45.6156338,3.37763168 L59.871831,55.6492376 C60.2046479,56.9227386 59.4280282,58.2517743 58.1522535,58.583998 L45.6157746,61.9063762 C44.34,62.2386 43.0085915,61.5187584 42.6202817,60.2452574 L28.4195775,7.97365149 C28.0312676,6.7000099 28.8078873,5.37111485 30.083662,5.03889109 Z" id="Path" fill="#52E2C1"></path>
                <path d="M45.6156338,0 L57.098169,0 C58.7069014,0 59.9826761,1.27350099 59.9826761,2.87936634 L59.9826761,56.9228792 C59.9826761,58.5287446 58.7069014,59.8022455 57.098169,59.8022455 L45.6156338,59.8022455 C44.0069014,59.8022455 42.7311268,58.5287446 42.7311268,56.9228792 L42.7311268,2.87936634 C42.7311268,1.27350099 44.0070423,0 45.6156338,0 Z" id="Path" fill="#FCB11A"></path>
                <path d="M37.9605634,43.135101 L42.6201408,60.2451168 C42.9529577,61.5186178 44.2842254,62.2938535 45.6156338,61.9062356 L58.1521127,58.5838574 C59.4280282,58.2516337 60.204507,56.9227386 59.8716901,55.649097 L55.2121127,38.7605168 L37.9605634,43.135101 Z" id="Path" fill="#E6E6E6"></path>
                <path d="M42.7311268,2.87936634 C42.7311268,2.43635446 42.8421127,2.04873663 43.0084507,1.71651287 C42.8974648,1.71651287 42.7311268,1.71651287 42.6201408,1.77190693 L39.6801408,2.54714257 L42.7311268,46.6789149 L42.7311268,2.87936634 L42.7311268,2.87936634 Z" id="Path" fill="#42BBA0"></path>
                <path d="M42.7311268,38.7052634 L42.7311268,56.9227386 C42.7311268,58.528604 44.0069014,59.802105 45.6156338,59.802105 L57.098169,59.802105 C58.7069014,59.802105 59.9826761,58.528604 59.9826761,56.9227386 L59.9826761,38.7052634 L42.7311268,38.7052634 Z" id="Path" fill="#EFEFEF"></path>
                <polygon id="Path" fill="#DDDDDD" points="42.7311268 41.9169941 42.3983099 42.0277822 42.7311268 46.6790554"></polygon>
                <path d="M45.5046479,41.5293762 L45.5046479,44.2979545 L54.9347887,44.2979545 L54.9347887,41.5293762 L45.5046479,41.5293762 Z M45.5046479,55.9262079 L49.3876056,55.9262079 L49.3876056,54.2650891 L45.5046479,54.2650891 L45.5046479,55.9262079 Z M45.5046479,52.0500297 L49.3876056,52.0500297 L49.3876056,50.3889109 L45.5046479,50.3889109 L45.5046479,52.0500297 Z M45.5046479,48.1739921 L49.3876056,48.1739921 L49.3876056,46.5128733 L45.5046479,46.5128733 L45.5046479,48.1739921 Z M55.2122535,53.1574891 C55.9888732,53.1574891 56.5990141,53.7665426 56.5990141,54.5417782 C56.5990141,55.3170139 55.9888732,55.9260673 55.2122535,55.9260673 C54.4356338,55.9260673 53.825493,55.3170139 53.825493,54.5417782 C53.8253521,53.7666832 54.4356338,53.1574891 55.2122535,53.1574891 Z" id="Shape" fill="#BFBFBF"></path>
            </g>
        </g>
    </g>
</svg>