<?xml version="1.0" encoding="UTF-8"?>
<svg width="71px" height="71px" viewBox="0 0 71 71" version="1.1" xmlns="http://www.w3.org/2000/svg" xmlns:xlink="http://www.w3.org/1999/xlink">
    <!-- Generator: Sketch 53.2 (72643) - https://sketchapp.com -->
    <title>reward</title>
    <desc>Created with Sketch.</desc>
    <g id="Page-1" stroke="none" stroke-width="1" fill="none" fill-rule="evenodd">
        <g id="Aceable" transform="translate(-160.000000, -11238.000000)" fill-rule="nonzero">
            <g id="reward" transform="translate(160.000000, 11238.000000)">
                <path d="M70.9996782,35.4310724 C71.0824283,55.0834613 55.1938749,70.9593923 35.3964704,70.9999239 C20.2624669,71.0307278 7.3202507,61.7068542 2.10427559,48.5281614 C1.72101222,47.559728 2.44180868,46.5123933 3.48925006,46.5123933 L53.8029119,46.5123933 C54.2950569,46.5123933 54.6935637,46.1848984 54.6935637,45.7812045 L54.6935637,8.26575848 C54.6935637,7.21842361 55.898339,6.62936541 56.7421718,7.25895518 C65.3617869,13.6926605 70.9506816,23.9125512 70.9996782,35.4310724 Z" id="Path" fill="#FCB11A"></path>
                <path d="M57,6.96706813 L57,47.2734921 C57,47.6746017 56.6022558,48 56.1110526,48 L2.44601696,48 C1.91025779,46.6597459 1.45600337,45.2792197 1.08868785,43.864328 C0.639867162,42.1342404 1.95046683,40.4476467 3.75770343,40.4476467 L48.4686047,40.4476467 C48.9598079,40.4476467 49.3575521,40.1222484 49.3575521,39.7211388 L49.3575521,6.33184349 C49.3575521,4.56792737 51.2740053,3.43601404 52.8345535,4.29139253 C54.2886018,5.08824233 55.6801631,5.98335598 57,6.96706813 Z" id="Path" fill="#FCB11A"></path>
                <path d="M53,4.39946293 L53,43.2732911 C53,43.6745116 52.6011924,44 52.108676,44 L1.12723064,44 C0.392814521,41.1871582 0,38.2389648 0,35.2 C0,15.7593261 15.9860815,0 35.7052632,0 C41.9804894,0 47.8759766,1.59682614 53,4.39946293 Z" id="Path" fill="#FCB11A"></path>
                <path d="M40.9444444,12.8 L8.89544267,12.8 C9.71391776,11.82 10.5816407,10.8848437 11.4975406,10 L40.9444444,10 C41.3229022,10 41.6296296,10.3133593 41.6296296,10.7 L41.6296296,12.1 C41.6296296,12.4866407 41.3229022,12.8 40.9444444,12.8 Z M14.9074074,15.6 C14.5289496,15.6 14.2222222,15.9133593 14.2222222,16.3 L14.2222222,17.7 C14.2222222,18.0866407 14.5289496,18.4 14.9074074,18.4 L34.0925926,18.4 C34.4710504,18.4 34.7777778,18.0866407 34.7777778,17.7 L34.7777778,16.3 C34.7777778,15.9133593 34.4710504,15.6 34.0925926,15.6 L14.9074074,15.6 Z M42.3148148,24 L6.68518519,24 C6.3067274,24 6,24.3133593 6,24.7 L6,26.1 C6,26.4866407 6.3067274,26.8 6.68518519,26.8 L42.3148148,26.8 C42.6932726,26.8 43,26.4866407 43,26.1 L43,24.7 C43,24.3133593 42.6932726,24 42.3148148,24 Z M42.3148148,35.2 L6.68518519,35.2 C6.3067274,35.2 6,35.5133593 6,35.9 L6,37.3 C6,37.6866407 6.3067274,38 6.68518519,38 L42.3148148,38 C42.6932726,38 43,37.6866407 43,37.3 L43,35.9 C43,35.5133593 42.6932726,35.2 42.3148148,35.2 Z M39.5740741,32.4 C39.9525319,32.4 40.2592593,32.0866407 40.2592593,31.7 L40.2592593,30.3 C40.2592593,29.9133593 39.9525319,29.6 39.5740741,29.6 L9.42592593,29.6 C9.04746814,29.6 8.74074074,29.9133593 8.74074074,30.3 L8.74074074,31.7 C8.74074074,32.0866407 9.04746814,32.4 9.42592593,32.4 L39.5740741,32.4 Z" id="Shape" fill="#FCB11A"></path>
                <g id="Group-3" transform="translate(18.000000, 10.000000)">
                    <path d="M33.6654298,49.2784293 L28.5560319,47.5146069 L24.9955691,51.6493169 C24.4628382,52.2673103 23.4707273,52.0307134 23.2619183,51.2356819 L18.5,33.0996759 L13.7380817,51.2356819 C13.5292727,52.0307134 12.5371618,52.2673103 12.0044309,51.6493169 L8.44396807,47.5146069 L3.33457023,49.2784293 C2.57054307,49.542347 1.82686148,48.8309167 2.03567051,48.0358852 L7.29658896,28 L18.5,31.0637398 L29.7039466,28 L34.9643295,48.0358852 C35.1731385,48.8309167 34.4294569,49.542347 33.6654298,49.2784293 L33.6654298,49.2784293 Z" id="Path" fill="#C2186C"></path>
                    <path d="M33.645942,49.357713 L28.4619354,47.6452737 L26.4590608,49.870702 L24.6642417,43.330754 C24.0444206,41.0719044 25.417153,38.7504563 27.7296665,38.145161 C30.0427233,37.5403962 32.4198808,38.8804277 33.0397017,41.1392774 L34.9638086,48.1508358 C35.1756667,48.9232372 34.4211257,49.6139424 33.645942,49.357713 L33.645942,49.357713 Z M6.95398426,41.5323745 L5,48.6548066 L8.05618998,47.6452737 L11.6686436,51.6595329 C12.2091536,52.2595231 13.2157516,52.0298186 13.4276097,51.2579477 L15.4842638,43.7641689 C16.1149492,41.4639406 14.7172285,39.0995223 12.3618001,38.4830866 C10.0063718,37.8666509 7.58521306,39.2316157 6.95398426,41.5323745 L6.95398426,41.5323745 Z" id="Shape" fill="#E31E7F"></path>
                    <path d="M35.2533383,22.3340375 C35.8839137,23.2568829 36.0509252,24.4698572 35.5911083,25.5795199 C35.1312916,26.6891828 34.1559874,27.4284226 33.0575657,27.6355811 C32.6769723,27.7073104 32.4312727,28.0745216 32.5110314,28.4535091 C32.7401369,29.5476484 32.4307374,30.7317169 31.5812272,31.5812272 C30.7317169,32.4307374 29.5471131,32.7406722 28.4529737,32.5110314 C28.0739863,32.4318081 27.7067751,32.6769723 27.6350457,33.0575657 C27.4284226,34.1565226 26.6891828,35.1318269 25.5789847,35.5916436 C24.4693219,36.0514605 23.2568829,35.884449 22.3335021,35.2538737 C22.0139321,35.0349387 21.5808799,35.1216563 21.3689038,35.4455086 C20.7570637,36.3812011 19.7009303,37 18.4997324,37 C17.2979992,37 16.2418658,36.3812011 15.6300257,35.4455086 C15.4180496,35.121121 14.9855327,35.0349387 14.6654273,35.2538737 C13.7425818,35.884449 12.5296075,36.0514605 11.4199448,35.5916436 C10.3097467,35.1318269 9.57050684,34.1565226 9.3638836,33.0575657 C9.29215438,32.6769723 8.92494319,32.4318081 8.54595562,32.5110314 C7.45181635,32.7406722 6.26721258,32.4307374 5.41823752,31.5812272 C4.56872734,30.7317169 4.25879256,29.5476484 4.48789804,28.4535091 C4.56765669,28.0745216 4.32249248,27.7073104 3.94136373,27.6355811 C2.84294212,27.4289579 1.86763788,26.6891828 1.40782114,25.5795199 C0.94800426,24.4698572 1.11501573,23.2568829 1.74559103,22.3340375 C1.96399065,22.0139321 1.87780848,21.5808799 1.55342088,21.3689038 C0.618263659,20.7575989 0,19.7014655 0,18.5002676 C0,17.2985345 0.618263659,16.2424011 1.55395614,15.6305609 C1.87834374,15.4185848 1.96452605,14.9860679 1.74612643,14.6659627 C1.11555099,13.7425818 0.948539519,12.5301428 1.4083564,11.4204801 C1.86817314,10.3102819 2.84347738,9.57104209 3.94189899,9.36441899 C4.32302774,9.29268964 4.56819208,8.92547845 4.4884333,8.54649101 C4.25932782,7.45235161 4.5692626,6.26774783 5.41877292,5.41823752 C6.26774783,4.5692626 7.45235161,4.25932782 8.54649101,4.4884333 C8.92547845,4.56819208 9.29268964,4.32302774 9.36441899,3.94189899 C9.57104209,2.84347738 10.3108173,1.86817314 11.4204801,1.4083564 C12.5301428,0.948539519 13.7431171,1.11555099 14.6659627,1.74612643 C14.9855327,1.96452605 15.4185848,1.87834374 15.6305609,1.55395614 C16.2424011,0.618263659 17.2985345,0 18.5002676,0 C19.7014655,0 20.7575989,0.618263659 21.3694391,1.55395614 C21.5814152,1.87834374 22.0139321,1.96452605 22.3340375,1.74612643 C23.2574182,1.11555099 24.4698572,0.948539519 25.5795199,1.4083564 C26.6897181,1.86817314 27.4289579,2.84347738 27.6355811,3.94189899 C27.7073104,4.32302774 28.0745216,4.56819208 28.4535091,4.4884333 C29.5476484,4.25932782 30.7322522,4.5692626 31.5817625,5.41823752 C32.4307374,6.26774783 32.7406722,7.45235161 32.5115667,8.54649101 C32.4318081,8.92547845 32.6775077,9.29268964 33.058101,9.36441899 C34.1565226,9.57104209 35.1323621,10.3102819 35.5916436,11.4204801 C36.0514605,12.5301428 35.884449,13.7425818 35.2538737,14.6659627 C35.0354741,14.9855327 35.1216563,15.4185848 35.4460439,15.6305609 C36.3817365,16.2424011 37,17.2985345 37,18.5002676 C37,19.7014655 36.3817365,20.7575989 35.4460439,21.3694391 C35.121121,21.5808799 35.0349387,22.0139321 35.2533383,22.3340375 L35.2533383,22.3340375 Z" id="Path" fill="#FD3D96"></path>
                    <path d="M32,18 C32,25.7317188 25.7317187,32 18,32 C10.2682813,32 4,25.7317188 4,18 C4,10.2677345 10.2682813,4 18,4 C25.7317187,4 32,10.2677345 32,18 Z" id="Path" fill="#E8CE00"></path>
                    <path d="M18.25,26.7260646 C13.6937011,26.7260646 10,23.0431997 10,18.5002677 C10,13.9568003 13.6937011,10.2744709 18.25,10.2744709 C22.8062989,10.2744709 26.5,13.9568003 26.5,18.5002677 C26.5,23.0431997 22.8062989,26.7260646 18.25,26.7260646 Z M20.65625,5 C19.0336426,5.2854394 17.5098633,5.8552472 16.1375489,6.65587005 C15.6165527,6.96005316 15.9017578,7.7671024 16.4979491,7.67124185 C17.101123,7.57431029 17.7204102,7.52664783 18.3525879,7.5325386 C24.2618652,7.5866276 29.1232422,12.3726918 29.2473145,18.2635619 C29.3778321,24.4291608 24.4041991,29.4674614 18.25,29.4674614 C17.6543457,29.4674614 17.0699707,29.4203344 16.4995605,29.3287582 C15.9017578,29.2328976 15.6138672,30.0383402 16.1364746,30.343059 C17.5087891,31.1442173 19.0331054,31.7145606 20.65625,32 C27.1026367,30.8652042 32,25.2528115 32,18.4997323 C32,11.746653 27.1026367,6.13426034 20.65625,5 Z" id="Shape" fill="#FDE803"></path>
                    <path d="M18.5597182,12.3336409 L19.9304787,14.9959484 C20.0213156,15.172736 20.1969699,15.2949661 20.400532,15.3232942 L23.4649068,15.7503125 C23.9770952,15.8216571 24.1812044,16.4249386 23.8107434,16.7711697 L21.5934493,18.8433104 C21.4462498,18.9807538 21.3794903,19.1790497 21.4139645,19.373149 L21.9370971,22.2993265 C22.0246507,22.7882468 21.4894794,23.1607076 21.0314648,22.9298868 L18.290491,21.5486346 C18.1088174,21.4568308 17.891575,21.4568308 17.7099015,21.5486346 L14.9683803,22.9298868 C14.510913,23.1607076 13.9751945,22.7882468 14.0627481,22.2993265 L14.5864278,19.373149 C14.6214493,19.1790497 14.5541426,18.9807538 14.406943,18.8433104 L12.1891018,16.7711697 C11.8186408,16.4249386 12.0232973,15.8216571 12.5354857,15.7503125 L15.5998605,15.3232942 C15.8034224,15.2949661 15.9790769,15.172736 16.0699136,14.9959484 L17.4406741,12.3336409 C17.6694079,11.8887864 18.3304373,11.8887864 18.5597182,12.3336409 L18.5597182,12.3336409 Z" id="Path" fill="#D6BF01"></path>
                    <path d="M23.859066,10.2131204 L24.4833663,11.3540278 C24.5206856,11.4228021 24.5771979,11.4793144 24.6459722,11.5166337 L25.7868796,12.140934 C26.0710401,12.2960761 26.0710401,12.7039239 25.7868796,12.859066 L24.6459722,13.4833663 C24.577731,13.5206856 24.5212187,13.5771979 24.4833663,13.6459722 L23.859066,14.7868796 C23.7039239,15.0710401 23.2960761,15.0710401 23.140934,14.7868796 L22.5166337,13.6459722 C22.4793144,13.577731 22.4228021,13.5212187 22.3540278,13.4833663 L21.2131204,12.859066 C20.9289599,12.7039239 20.9289599,12.2960761 21.2131204,12.140934 L22.3540278,11.5166337 C22.4228021,11.4793144 22.4793144,11.4228021 22.5166337,11.3540278 L23.140934,10.2131204 C23.2960761,9.92895986 23.7039239,9.92895986 23.859066,10.2131204 Z" id="Path" fill="#FFF5F5"></path>
                </g>
            </g>
        </g>
    </g>
</svg>