<?xml version="1.0" encoding="UTF-8"?>
<svg width="71px" height="71px" viewBox="0 0 71 71" version="1.1" xmlns="http://www.w3.org/2000/svg" xmlns:xlink="http://www.w3.org/1999/xlink">
    <!-- Generator: Sketch 53.2 (72643) - https://sketchapp.com -->
    <title>school-bell</title>
    <desc>Created with Sketch.</desc>
    <g id="Page-1" stroke="none" stroke-width="1" fill="none" fill-rule="evenodd">
        <g id="Aceable" transform="translate(-160.000000, -11030.000000)" fill-rule="nonzero">
            <g id="school-bell" transform="translate(160.000000, 11030.000000)">
                <path d="M35.5001387,71 C55.0525957,71 71,55.0528108 71,35.4998613 C71,15.9470506 55.0525957,0 35.5001387,0 C15.9472656,-6.62136712e-16 0,15.9470506 0,35.4998613 C0,55.0528108 15.9472656,71 35.5001387,71 Z" id="Path" fill="#12BDCD"></path>
                <g id="Group" transform="translate(29.000000, 4.000000)" fill="#FFFFFF">
                    <path d="M9.87783333,5.63673418 C11.7420333,6.76082278 12.9859889,8.78913924 12.9859889,11.1033165 L12.9849778,11.2105316 L0.0153111111,11.2105316 L0.0141555556,11.1033165 C0.0141555556,8.72494937 1.32802222,6.65026582 3.27744444,5.54636709 C3.33132222,5.62016456 3.38693333,5.69243038 3.44543333,5.76274684 C2.99707778,5.16832911 2.73332222,4.44093671 2.73332222,3.65603797 C2.73332222,1.64303797 4.46983333,0.0103037975 6.61281111,0.0103037975 C8.75651111,0.0103037975 10.4923,1.64303797 10.4923,3.65603797 C10.4923,4.42506329 10.2393778,5.13811392 9.80748889,5.72598734 L9.87783333,5.63673418 L9.87783333,5.63673418 Z M6.58941111,1.40075949 L6.58941111,1.40075949 C5.4457,1.40075949 4.51894444,2.2763038 4.51894444,3.35597468 C4.51894444,4.43508861 5.4457,5.31049367 6.58941111,5.31049367 C7.73297778,5.31049367 8.65944444,4.43522785 8.65944444,3.35597468 C8.65958889,2.27616456 7.73297778,1.40075949 6.58941111,1.40075949 Z" id="Shape"></path>
                    <path d="M11.6170889,49.434557 C11.6202667,49.5098861 11.6224333,49.5849367 11.6224333,49.6604051 C11.6224333,52.6022785 9.16427778,54.9869114 6.13181111,54.9869114 C3.0992,54.9869114 0.640755556,52.6022785 0.640755556,49.6604051 C0.640755556,49.5849367 0.643211111,49.5098861 0.646388889,49.434557 L11.6170889,49.434557 Z" id="Path"></path>
                </g>
                <path d="M18.6435967,46 L52.3565438,46 C54.9106975,46 57,48.1481956 57,50.7738629 L57,54 L14,54 L14,50.7738629 C14,48.1481956 16.0894429,46 18.6435967,46 L18.6435967,46 Z" id="Path" fill="#FBAB08"></path>
                <g id="Group" transform="translate(14.000000, 16.000000)" fill="#FFBA1B">
                    <path d="M42.7526104,35.7837464 C42.8310714,35.9518551 42.8728149,36.1269855 42.8728149,36.3065217 L42.8728149,37.8663116 L0.126347403,37.8663116 L0.126347403,36.3065217 C0.126347403,36.1269855 0.167811688,35.9518551 0.246272727,35.7837464 L42.7526104,35.7837464 L42.7526104,35.7837464 Z" id="Path"></path>
                    <path d="M15.1901688,0.0839855072 C15.1901688,0.0839855072 8.1673474,2.07967391 8.57431169,14.4862609 C8.98127597,26.8924348 5.13933766,30.1293188 5.13933766,30.1293188 L21.5001396,30.1293188 L37.8605227,30.1293188 C37.8605227,30.1293188 34.0191429,26.8924348 34.4258279,14.4862609 C34.832513,2.07967391 27.8099708,0.0839855072 27.8099708,0.0839855072 L21.5,0.0703550725 L15.1901688,0.0839855072 Z" id="Path"></path>
                </g>
                <path d="M52,46 C52,46 48.0842495,42.7684145 48.4988081,30.3825486 C48.9133668,17.9962704 41.7548653,16.0037113 41.7548653,16.0037113 L40,16 C40.4690646,16.1704452 47.0823638,18.7433426 47.296403,28.3572751 C47.5184118,38.3243315 47.0130572,42.4342595 52,46 Z" id="Path" fill="#FBAB08"></path>
                <g id="Group" transform="translate(33.000000, 4.000000)" fill="#ECF0F1">
                    <path d="M5.79164516,5.72598734 C6.22582258,5.13811392 6.47985484,4.42492405 6.47985484,3.65603797 C6.47985484,1.64303797 4.73545161,0.0103037975 2.5811129,0.0103037975 C2.42564516,0.0103037975 2.27220968,0.0190759494 2.1213871,0.0355063291 C4.14217742,0.172240506 5.73401613,1.74816456 5.73401613,3.67163291 C5.73401613,4.44024051 5.48027419,5.15370886 5.04580645,5.7413038 L5.11679032,5.65205063 C6.99009677,6.77655696 8.24008065,8.8044557 8.24008065,11.1190506 L8.23920968,11.2106709 L8.98490323,11.2106709 L8.98591935,11.1034557 C8.98591935,8.78927848 7.73579032,6.76096203 5.86233871,5.63687342 L5.79164516,5.72598734 L5.79164516,5.72598734 Z" id="Path"></path>
                    <path d="M7.61022581,49.434557 L6.87977419,49.4344177 C6.85291935,52.4308734 4.50464516,54.8510127 1.61114516,54.8510127 C1.06170968,54.8510127 0.532306452,54.7638481 0.0345483871,54.6020506 C0.671806452,54.8501772 1.36814516,54.9869114 2.09758065,54.9869114 C5.14524194,54.9869114 7.61545161,52.6022785 7.61545161,49.6604051 L7.61022581,49.434557 Z" id="Path"></path>
                </g>
                <g id="Group" transform="translate(10.000000, 28.000000)" fill="#FFFFFF">
                    <path d="M1.14345902,13.9752525 C0.443532787,11.7636768 0.0673032787,9.4190303 0.0673032787,6.99066667 C0.0673032787,4.56230303 0.443672131,2.21793939 1.14345902,0.00650505051 L1.69331148,0.164181818 C1.00954918,2.32555556 0.641819672,4.61759596 0.641819672,6.99066667 C0.641819672,9.36416162 1.00954918,11.6560606 1.69331148,13.8172929 L1.14345902,13.9752525 Z M3.6320082,0.720222222 L3.6320082,0.720222222 L4.18227869,0.878040404 C3.57013934,2.81329293 3.24045082,4.86549495 3.24045082,6.99066667 C3.24045082,9.1159798 3.57,11.1681818 4.18227869,13.1035758 L3.6320082,13.2613939 C3.00412295,11.2759394 2.66621311,9.1709899 2.66621311,6.99066667 C2.66621311,4.81076768 3.00412295,2.70553535 3.6320082,0.720222222 L3.6320082,0.720222222 Z M5.86388525,1.36026263 L5.86388525,1.36026263 L6.41359836,1.51779798 C5.86527869,3.25068687 5.57070492,5.08822222 5.57070492,6.99080808 C5.57070492,8.89381818 5.86541803,10.7309293 6.41359836,12.4638182 L5.86388525,12.6216364 C5.29968033,10.8386869 4.99618852,8.94840404 4.99618852,6.99080808 C4.99618852,5.03307071 5.29968033,3.14278788 5.86388525,1.36026263 Z M7.86472951,1.9339798 L7.86472951,1.9339798 L8.41486066,2.09165657 C7.92409016,3.64282828 7.66017213,5.28733333 7.66017213,6.99066667 C7.66017213,8.69428283 7.92409016,10.3385051 8.41486066,11.8899596 L7.86472951,12.0477778 C7.35793443,10.446404 7.08579508,8.74872727 7.08579508,6.99066667 C7.08579508,5.23260606 7.35821311,3.53492929 7.86472951,1.9339798 Z" id="Shape"></path>
                    <path d="M49.8562623,0.00650505051 C50.5559098,2.21808081 50.9322787,4.56230303 50.9322787,6.99066667 C50.9322787,9.4190303 50.5559098,11.7636768 49.8562623,13.9752525 L49.3061311,13.8174343 C49.9897541,11.6560606 50.3579016,9.36430303 50.3579016,6.99080808 C50.3579016,4.61759596 49.9897541,2.32555556 49.3061311,0.164323232 L49.8562623,0.00650505051 Z M47.3674344,0.720222222 L47.3674344,0.720222222 L46.8173033,0.878040404 C47.429582,2.81329293 47.7591311,4.86549495 47.7591311,6.99066667 C47.7591311,9.1159798 47.4298607,11.1681818 46.8173033,13.1035758 L47.3674344,13.2613939 C47.9955984,11.2759394 48.3335082,9.1709899 48.3335082,6.99066667 C48.3335082,4.81076768 47.995459,2.70553535 47.3674344,0.720222222 L47.3674344,0.720222222 Z M45.1356967,1.36026263 L45.1356967,1.36026263 L44.5859836,1.51779798 C45.1343033,3.25068687 45.4290164,5.08822222 45.4290164,6.99080808 C45.4290164,8.89381818 45.1341639,10.7309293 44.5859836,12.4638182 L45.1356967,12.6216364 C45.6999016,10.8386869 46.0033934,8.94840404 46.0033934,6.99080808 C46.0035328,5.03307071 45.6999016,3.14278788 45.1356967,1.36026263 Z M43.1348525,1.9339798 L43.1348525,1.9339798 L42.585,2.09165657 C43.0759098,3.64282828 43.3396885,5.28733333 43.3396885,6.99066667 C43.3396885,8.69428283 43.0759098,10.3385051 42.585,11.8899596 L43.1348525,12.0477778 C43.6416475,10.446404 43.9139262,8.74872727 43.9139262,6.99066667 C43.9139262,5.23260606 43.6413689,3.53492929 43.1348525,1.9339798 Z" id="Shape"></path>
                </g>
            </g>
        </g>
    </g>
</svg>