<?xml version="1.0" encoding="UTF-8"?>
<svg width="54px" height="54px" viewBox="0 0 54 54" version="1.1" xmlns="http://www.w3.org/2000/svg" xmlns:xlink="http://www.w3.org/1999/xlink">
    <!-- Generator: Sketch 53.2 (72643) - https://sketchapp.com -->
    <title>user</title>
    <desc>Created with Sketch.</desc>
    <g id="Page-1" stroke="none" stroke-width="1" fill="none" fill-rule="evenodd">
        <g id="Amazon-Style-guide-Copy" transform="translate(-1805.000000, -1527.000000)" fill="#FCAD4F" fill-rule="nonzero">
            <g id="Group-42" transform="translate(1802.000000, 1386.000000)">
                <g id="Group-36" transform="translate(3.000000, 141.000000)">
                    <g id="user">
                        <path d="M46.0919531,34.9080469 C43.151168,31.9673672 39.6508711,29.7903867 35.8318477,28.4725547 C39.9221367,25.6553789 42.609375,20.9406094 42.609375,15.609375 C42.609375,7.00238672 35.6069883,0 27,0 C18.3930117,0 11.390625,7.00238672 11.390625,15.609375 C11.390625,20.9406094 14.0778633,25.6553789 18.1682578,28.4725547 C14.3492344,29.7903867 10.8489375,31.9673672 7.90815234,34.9080469 C2.80852734,40.0077773 0,46.7880469 0,54 L4.21875,54 C4.21875,41.4383555 14.4383555,31.21875 27,31.21875 C39.5616445,31.21875 49.78125,41.4383555 49.78125,54 L54,54 C54,46.7880469 51.1914727,40.0077773 46.0919531,34.9080469 Z M27,27.0974729 C20.7116724,27.0974729 15.5956679,21.981574 15.5956679,15.6931408 C15.5956679,9.40470758 20.7116724,4.28880866 27,4.28880866 C33.2883276,4.28880866 38.4043321,9.40470758 38.4043321,15.6931408 C38.4043321,21.981574 33.2883276,27.0974729 27,27.0974729 Z" id="Shape"></path>
                    </g>
                </g>
            </g>
        </g>
    </g>
</svg>